<svg width="2503" height="1759" viewBox="0 0 2503 1759" fill="none" xmlns="http://www.w3.org/2000/svg">
<path d="M2502.6 131.922V1503.11C2502.6 1569.34 2448.91 1623.03 2382.68 1623.03H228.273C162.043 1623.03 108.31 1569.34 108.31 1503.11V131.922C108.31 65.6915 162.043 12 228.273 12H2382.68C2448.91 12 2502.6 65.6915 2502.6 131.922Z" fill="#F5F5F5"/>
<path d="M1571.84 879.554H389.903V1494.4H1571.84V879.554Z" fill="#FFA727"/>
<path d="M2266.43 147.462V182.884H1049.15V147.462C1049.15 123.256 1068.8 103.641 1093.01 103.641H2222.61C2246.82 103.641 2266.43 123.256 2266.43 147.462Z" fill="#25292B"/>
<path d="M2192.62 151.257H2107.4C2101.76 151.257 2097.14 146.636 2097.14 140.991C2097.14 135.347 2101.76 130.726 2107.4 130.726H2192.62C2198.26 130.726 2202.88 135.347 2202.88 140.991C2202.88 146.636 2198.26 151.257 2192.62 151.257Z" fill="#F2E9DA"/>
<path d="M2052.4 152.761H1967.18C1961.54 152.761 1956.92 148.14 1956.92 142.496C1956.92 136.851 1961.54 132.23 1967.18 132.23H2052.4C2058.05 132.23 2062.67 136.851 2062.67 142.496C2062.67 148.144 2058.05 152.761 2052.4 152.761Z" fill="#FFBD29"/>
<path d="M1911.97 152.761H1826.75C1821.11 152.761 1816.49 148.14 1816.49 142.496C1816.49 136.851 1821.11 132.23 1826.75 132.23H1911.97C1917.62 132.23 1922.24 136.851 1922.24 142.496C1922.24 148.144 1917.62 152.761 1911.97 152.761Z" fill="#FFA727"/>
<path d="M2220.24 99.7893H1095.45C1067.81 99.7893 1045.32 122.277 1045.32 149.916V747.668H1048.38V149.916C1048.38 123.967 1069.49 102.852 1095.45 102.852H2220.25C2246.13 102.852 2267.2 123.963 2267.2 149.916V943.396C2267.2 969.345 2246.13 990.46 2220.25 990.46H2219.48V993.523H2220.25C2247.82 993.523 2270.26 971.035 2270.26 943.396V149.916C2270.26 122.277 2247.82 99.7893 2220.24 99.7893Z" fill="#25292B"/>
<path d="M1902.51 381.99H1019.54V740.174H1902.51V381.99Z" fill="#FFBD29"/>
<path d="M1331.25 420.097H1049.28V702.068H1331.25V420.097Z" fill="#F2E9DA"/>
<path d="M1840.63 426.584H1368.68V449.483H1840.63V426.584Z" fill="#F2E9DA"/>
<path d="M1840.63 473.542H1368.68V496.441H1840.63V473.542Z" fill="#F2E9DA"/>
<path d="M1840.63 523.759H1368.68V546.658H1840.63V523.759Z" fill="#F2E9DA"/>
<path d="M1840.63 570.716H1368.68V593.615H1840.63V570.716Z" fill="#F2E9DA"/>
<path d="M1840.63 616.971H1368.68V639.87H1840.63V616.971Z" fill="#F2E9DA"/>
<path d="M1692.73 663.933H1368.68V686.832H1692.73V663.933Z" fill="#F2E9DA"/>
<path d="M1345.19 689.697H1321.41C1320.28 689.697 1319.36 688.776 1319.36 687.641C1319.36 686.507 1320.28 685.586 1321.41 685.586H1345.19C1346.32 685.586 1347.24 686.507 1347.24 687.641C1347.24 688.776 1346.32 689.697 1345.19 689.697ZM1297.64 689.697H1273.87C1272.74 689.697 1271.82 688.776 1271.82 687.641C1271.82 686.507 1272.74 685.586 1273.87 685.586H1297.64C1298.78 685.586 1299.7 686.507 1299.7 687.641C1299.7 688.776 1298.78 689.697 1297.64 689.697ZM1250.1 689.697H1226.33C1225.19 689.697 1224.27 688.776 1224.27 687.641C1224.27 686.507 1225.19 685.586 1226.33 685.586H1250.1C1251.23 685.586 1252.15 686.507 1252.15 687.641C1252.15 688.776 1251.23 689.697 1250.1 689.697ZM1202.55 689.697H1178.78C1177.65 689.697 1176.73 688.776 1176.73 687.641C1176.73 686.507 1177.65 685.586 1178.78 685.586H1202.55C1203.69 685.586 1204.61 686.507 1204.61 687.641C1204.61 688.776 1203.69 689.697 1202.55 689.697ZM1155.01 689.697H1131.24C1130.11 689.697 1129.19 688.776 1129.19 687.641C1129.19 686.507 1130.11 685.586 1131.24 685.586H1155.01C1156.15 685.586 1157.07 686.507 1157.07 687.641C1157.07 688.776 1156.15 689.697 1155.01 689.697ZM1107.47 689.697H1083.7C1082.56 689.697 1081.64 688.776 1081.64 687.641C1081.64 686.507 1082.56 685.586 1083.7 685.586H1107.47C1108.6 685.586 1109.52 686.507 1109.52 687.641C1109.52 688.776 1108.61 689.697 1107.47 689.697ZM1063.21 686.408C1062.08 686.408 1061.16 685.487 1061.16 684.353V660.582C1061.16 659.447 1062.08 658.526 1063.21 658.526C1064.35 658.526 1065.27 659.447 1065.27 660.582V684.353C1065.27 685.487 1064.35 686.408 1063.21 686.408ZM1345.19 679.086C1344.05 679.086 1343.13 678.165 1343.13 677.031V653.26C1343.13 652.125 1344.05 651.204 1345.19 651.204C1346.32 651.204 1347.24 652.125 1347.24 653.26V677.031C1347.24 678.169 1346.32 679.086 1345.19 679.086ZM1063.21 638.867C1062.08 638.867 1061.16 637.946 1061.16 636.811V613.041C1061.16 611.906 1062.08 610.985 1063.21 610.985C1064.35 610.985 1065.27 611.906 1065.27 613.041V636.811C1065.27 637.946 1064.35 638.867 1063.21 638.867ZM1345.19 631.545C1344.05 631.545 1343.13 630.624 1343.13 629.489V605.719C1343.13 604.584 1344.05 603.663 1345.19 603.663C1346.32 603.663 1347.24 604.584 1347.24 605.719V629.489C1347.24 630.624 1346.32 631.545 1345.19 631.545ZM1063.21 591.322C1062.08 591.322 1061.16 590.401 1061.16 589.266V565.495C1061.16 564.361 1062.08 563.44 1063.21 563.44C1064.35 563.44 1065.27 564.361 1065.27 565.495V589.266C1065.27 590.405 1064.35 591.322 1063.21 591.322ZM1345.19 584C1344.05 584 1343.13 583.079 1343.13 581.944V558.173C1343.13 557.039 1344.05 556.118 1345.19 556.118C1346.32 556.118 1347.24 557.039 1347.24 558.173V581.944C1347.24 583.083 1346.32 584 1345.19 584ZM1063.21 543.78C1062.08 543.78 1061.16 542.859 1061.16 541.725V517.95C1061.16 516.815 1062.08 515.894 1063.21 515.894C1064.35 515.894 1065.27 516.815 1065.27 517.95V541.725C1065.27 542.859 1064.35 543.78 1063.21 543.78ZM1345.19 536.458C1344.05 536.458 1343.13 535.537 1343.13 534.403V510.628C1343.13 509.493 1344.05 508.572 1345.19 508.572C1346.32 508.572 1347.24 509.493 1347.24 510.628V534.403C1347.24 535.537 1346.32 536.458 1345.19 536.458ZM1063.21 496.235C1062.08 496.235 1061.16 495.314 1061.16 494.179V470.409C1061.16 469.274 1062.08 468.353 1063.21 468.353C1064.35 468.353 1065.27 469.274 1065.27 470.409V494.179C1065.27 495.314 1064.35 496.235 1063.21 496.235ZM1345.19 488.913C1344.05 488.913 1343.13 487.992 1343.13 486.857V463.087C1343.13 461.952 1344.05 461.031 1345.19 461.031C1346.32 461.031 1347.24 461.952 1347.24 463.087V486.857C1347.24 487.992 1346.32 488.913 1345.19 488.913ZM1063.21 448.69C1062.08 448.69 1061.16 447.769 1061.16 446.634V422.863C1061.16 421.729 1062.08 420.808 1063.21 420.808C1064.35 420.808 1065.27 421.729 1065.27 422.863V446.634C1065.27 447.773 1064.35 448.69 1063.21 448.69ZM1345.19 441.372C1344.05 441.372 1343.13 440.451 1343.13 439.316V415.545C1343.13 414.411 1344.05 413.49 1345.19 413.49C1346.32 413.49 1347.24 414.411 1347.24 415.545V439.316C1347.24 440.451 1346.32 441.372 1345.19 441.372ZM1331.28 407.726H1307.51C1306.38 407.726 1305.45 406.805 1305.45 405.671C1305.45 404.536 1306.38 403.615 1307.51 403.615H1331.28C1332.42 403.615 1333.34 404.536 1333.34 405.671C1333.34 406.805 1332.42 407.726 1331.28 407.726ZM1283.74 407.726H1259.97C1258.83 407.726 1257.91 406.805 1257.91 405.671C1257.91 404.536 1258.83 403.615 1259.97 403.615H1283.74C1284.87 403.615 1285.8 404.536 1285.8 405.671C1285.8 406.805 1284.87 407.726 1283.74 407.726ZM1236.19 407.726H1212.42C1211.29 407.726 1210.37 406.805 1210.37 405.671C1210.37 404.536 1211.29 403.615 1212.42 403.615H1236.19C1237.33 403.615 1238.25 404.536 1238.25 405.671C1238.25 406.805 1237.33 407.726 1236.19 407.726ZM1188.65 407.726H1164.88C1163.75 407.726 1162.83 406.805 1162.83 405.671C1162.83 404.536 1163.75 403.615 1164.88 403.615H1188.65C1189.79 403.615 1190.71 404.536 1190.71 405.671C1190.71 406.805 1189.79 407.726 1188.65 407.726ZM1141.11 407.726H1117.34C1116.2 407.726 1115.28 406.805 1115.28 405.671C1115.28 404.536 1116.2 403.615 1117.34 403.615H1141.11C1142.24 403.615 1143.16 404.536 1143.16 405.671C1143.16 406.805 1142.25 407.726 1141.11 407.726ZM1093.57 407.726H1069.8C1068.66 407.726 1067.74 406.805 1067.74 405.671C1067.74 404.536 1068.66 403.615 1069.8 403.615H1093.57C1094.7 403.615 1095.62 404.536 1095.62 405.671C1095.62 406.805 1094.7 407.726 1093.57 407.726Z" fill="#25292B"/>
<path d="M1909.91 258.578V277.473C1909.91 294.624 1895.88 308.66 1878.72 308.66H1048.26C1031.11 308.66 1017.07 294.624 1017.07 277.473V258.578C1017.07 241.426 1031.11 227.391 1048.26 227.391H1878.73C1895.88 227.391 1909.91 241.426 1909.91 258.578Z" fill="#F2E9DA"/>
<path d="M1218.26 289.325H1210.86V268.009C1210.86 265.332 1210.32 263.339 1209.25 262.019C1208.17 260.703 1206.46 260.046 1204.12 260.046C1201.03 260.046 1198.75 260.971 1197.3 262.821C1195.85 264.671 1195.12 267.766 1195.12 272.116V289.325H1187.76V240.546H1195.12V252.929C1195.12 254.915 1195 257.036 1194.75 259.293H1195.22C1196.22 257.62 1197.61 256.325 1199.4 255.408C1201.19 254.491 1203.27 254.027 1205.66 254.027C1214.06 254.027 1218.26 258.257 1218.26 266.722V289.325Z" fill="#25292B"/>
<path d="M1241.42 283.993C1243.22 283.993 1245.02 283.709 1246.82 283.146V288.696C1246 289.05 1244.95 289.35 1243.66 289.588C1242.38 289.827 1241.05 289.95 1239.67 289.95C1232.69 289.95 1229.2 286.275 1229.2 278.916V260.235H1224.47V256.975L1229.55 254.278L1232.05 246.943H1236.6V254.656H1246.48V260.235H1236.6V278.792C1236.6 280.568 1237.05 281.88 1237.93 282.727C1238.82 283.57 1239.98 283.993 1241.42 283.993Z" fill="#25292B"/>
<path d="M1266.66 283.993C1268.46 283.993 1270.25 283.709 1272.06 283.146V288.696C1271.24 289.05 1270.19 289.35 1268.9 289.588C1267.62 289.827 1266.29 289.95 1264.91 289.95C1257.93 289.95 1254.44 286.275 1254.44 278.916V260.235H1249.71V256.975L1254.78 254.278L1257.29 246.943H1261.84V254.656H1271.71V260.235H1261.84V278.792C1261.84 280.568 1262.28 281.88 1263.17 282.727C1264.05 283.57 1265.22 283.993 1266.66 283.993Z" fill="#25292B"/>
<path d="M1296.56 289.95C1292.18 289.95 1288.77 288.371 1286.35 285.218H1285.91C1286.2 288.145 1286.35 289.921 1286.35 290.546V304.746H1278.98V254.651H1284.94C1285.1 255.301 1285.45 256.847 1285.97 259.289H1286.35C1288.64 255.778 1292.09 254.022 1296.69 254.022C1301.01 254.022 1304.39 255.589 1306.8 258.726C1309.21 261.862 1310.42 266.261 1310.42 271.922C1310.42 277.588 1309.19 282.007 1306.74 285.181C1304.28 288.363 1300.89 289.95 1296.56 289.95ZM1294.78 260.045C1291.85 260.045 1289.72 260.9 1288.37 262.615C1287.02 264.329 1286.35 267.063 1286.35 270.829V271.927C1286.35 276.149 1287.02 279.203 1288.36 281.094C1289.69 282.985 1291.88 283.931 1294.91 283.931C1297.46 283.931 1299.42 282.887 1300.8 280.798C1302.18 278.71 1302.87 275.729 1302.87 271.865C1302.87 267.98 1302.18 265.036 1300.82 263.042C1299.44 261.044 1297.43 260.045 1294.78 260.045Z" fill="#25292B"/>
<path d="M1342.27 279.45C1342.27 282.834 1341.04 285.432 1338.57 287.241C1336.11 289.05 1332.58 289.954 1327.98 289.954C1323.36 289.954 1319.65 289.255 1316.85 287.853V281.489C1320.92 283.368 1324.72 284.31 1328.23 284.31C1332.76 284.31 1335.03 282.941 1335.03 280.203C1335.03 279.327 1334.78 278.595 1334.28 278.007C1333.78 277.423 1332.95 276.815 1331.8 276.19C1330.65 275.565 1329.05 274.854 1327 274.056C1323.01 272.511 1320.31 270.965 1318.9 269.419C1317.49 267.873 1316.78 265.867 1316.78 263.4C1316.78 260.432 1317.98 258.13 1320.38 256.489C1322.77 254.849 1326.03 254.031 1330.14 254.031C1334.22 254.031 1338.07 254.857 1341.71 256.506L1339.33 262.056C1335.58 260.51 1332.44 259.737 1329.89 259.737C1326 259.737 1324.06 260.843 1324.06 263.059C1324.06 264.149 1324.56 265.065 1325.58 265.818C1326.59 266.57 1328.8 267.606 1332.21 268.922C1335.07 270.027 1337.15 271.043 1338.45 271.964C1339.74 272.885 1340.7 273.945 1341.33 275.146C1341.96 276.342 1342.27 277.777 1342.27 279.45Z" fill="#25292B"/>
<path d="M1349.14 258.635C1349.14 255.482 1350.68 253.904 1353.77 253.904C1355.34 253.904 1356.51 254.323 1357.28 255.157C1358.06 255.992 1358.44 257.155 1358.44 258.635C1358.44 260.12 1358.04 261.295 1357.24 262.163C1356.43 263.03 1355.28 263.466 1353.77 263.466C1352.27 263.466 1351.12 263.039 1350.32 262.179C1349.53 261.32 1349.14 260.14 1349.14 258.635ZM1349.14 285.403C1349.14 283.878 1349.53 282.706 1350.33 281.892C1351.12 281.078 1352.27 280.671 1353.78 280.671C1355.3 280.671 1356.46 281.095 1357.25 281.942C1358.05 282.788 1358.45 283.944 1358.45 285.407C1358.45 286.891 1358.04 288.067 1357.24 288.935C1356.44 289.802 1355.28 290.234 1353.78 290.234C1352.27 290.234 1351.12 289.806 1350.33 288.951C1349.53 288.092 1349.14 286.912 1349.14 285.403Z" fill="#25292B"/>
<path d="M1387.13 243.494L1370.07 289.325H1363.11L1380.19 243.494H1387.13Z" fill="#25292B"/>
<path d="M1412.17 243.494L1395.12 289.325H1388.16L1405.24 243.494H1412.17Z" fill="#25292B"/>
<path d="M1168.76 258.265V277.781C1168.76 290.698 1158.21 301.247 1145.29 301.247H1049.4C1036.48 301.247 1025.93 290.698 1025.93 277.781V258.265C1025.93 245.348 1036.48 234.799 1049.4 234.799H1145.29C1158.21 234.799 1168.76 245.348 1168.76 258.265Z" fill="#FFBD29"/>
<path d="M1688.26 808.041V845.839H470.979V808.041C470.979 785.142 489.52 766.638 512.382 766.638H1646.85C1669.76 766.638 1688.26 785.142 1688.26 808.041Z" fill="#25292B"/>
<path d="M1614.45 817.517H1529.23C1523.59 817.517 1518.97 812.896 1518.97 807.251C1518.97 801.607 1523.59 796.986 1529.23 796.986H1614.45C1620.1 796.986 1624.72 801.607 1624.72 807.251C1624.71 812.896 1620.1 817.517 1614.45 817.517Z" fill="#FFBD29"/>
<path d="M1474.23 817.517H1389.02C1383.37 817.517 1378.75 812.896 1378.75 807.251C1378.75 801.607 1383.37 796.986 1389.02 796.986H1474.23C1479.88 796.986 1484.5 801.607 1484.5 807.251C1484.5 812.896 1479.88 817.517 1474.23 817.517Z" fill="#F2E9DA"/>
<path d="M1333.81 817.517H1248.59C1242.94 817.517 1238.32 812.896 1238.32 807.251C1238.32 801.607 1242.94 796.986 1248.59 796.986H1333.81C1339.45 796.986 1344.07 801.607 1344.07 807.251C1344.07 812.896 1339.45 817.517 1333.81 817.517Z" fill="#FFA727"/>
<path d="M1642.08 1658.28H517.275C489.635 1658.28 467.147 1635.79 467.147 1608.15V814.672C467.147 787.033 489.635 764.545 517.275 764.545H1642.08C1669.65 764.545 1692.09 787.033 1692.09 814.672V1608.15C1692.09 1635.79 1669.65 1658.28 1642.08 1658.28ZM517.275 767.608C491.325 767.608 470.21 788.718 470.21 814.672V1608.15C470.21 1634.1 491.321 1655.22 517.275 1655.22H1642.08C1667.96 1655.22 1689.02 1634.1 1689.02 1608.15V814.672C1689.02 788.723 1667.96 767.608 1642.08 767.608H517.275Z" fill="#25292B"/>
<path d="M811.769 925.636H530.636V1206.77H811.769V925.636Z" fill="#F2E9DA"/>
<path d="M678.646 1168.05C618.175 1168.05 568.977 1118.86 568.977 1058.38C568.977 997.91 618.175 948.712 678.646 948.712C739.121 948.712 788.319 997.91 788.319 1058.38C788.319 1118.86 739.121 1168.05 678.646 1168.05ZM678.646 970.538C630.208 970.538 590.799 1009.95 590.799 1058.39C590.799 1106.83 630.208 1146.24 678.646 1146.24C727.087 1146.24 766.497 1106.83 766.497 1058.39C766.497 1009.95 727.087 970.538 678.646 970.538Z" fill="#FFBD29"/>
<path d="M745.924 1064.88L653.066 1121.35C647.849 1124.5 641.23 1120.78 641.23 1114.68V1001.79C641.23 995.739 647.849 992.014 653.066 995.172L745.924 1051.6C750.923 1054.62 750.923 1061.85 745.924 1064.88Z" fill="#FFBD29"/>
<path d="M819.214 1201H794.395C793.261 1201 792.34 1200.08 792.34 1198.95C792.34 1197.81 793.261 1196.89 794.395 1196.89H819.214C820.349 1196.89 821.27 1197.81 821.27 1198.95C821.27 1200.08 820.349 1201 819.214 1201ZM769.58 1201H744.761C743.627 1201 742.706 1200.08 742.706 1198.95C742.706 1197.81 743.627 1196.89 744.761 1196.89H769.58C770.715 1196.89 771.636 1197.81 771.636 1198.95C771.636 1200.08 770.719 1201 769.58 1201ZM719.947 1201H695.128C693.993 1201 693.072 1200.08 693.072 1198.95C693.072 1197.81 693.993 1196.89 695.128 1196.89H719.947C721.081 1196.89 722.002 1197.81 722.002 1198.95C722.002 1200.08 721.085 1201 719.947 1201ZM670.313 1201H645.494C644.359 1201 643.438 1200.08 643.438 1198.95C643.438 1197.81 644.359 1196.89 645.494 1196.89H670.313C671.447 1196.89 672.368 1197.81 672.368 1198.95C672.368 1200.08 671.452 1201 670.313 1201ZM620.679 1201H595.86C594.725 1201 593.804 1200.08 593.804 1198.95C593.804 1197.81 594.725 1196.89 595.86 1196.89H620.679C621.814 1196.89 622.734 1197.81 622.734 1198.95C622.734 1200.08 621.818 1201 620.679 1201ZM571.045 1201H546.226C545.091 1201 544.171 1200.08 544.171 1198.95C544.171 1197.81 545.091 1196.89 546.226 1196.89H571.045C572.18 1196.89 573.101 1197.81 573.101 1198.95C573.101 1200.08 572.184 1201 571.045 1201ZM819.214 1193.24C818.08 1193.24 817.159 1192.32 817.159 1191.18V1166.36C817.159 1165.23 818.08 1164.31 819.214 1164.31C820.349 1164.31 821.27 1165.23 821.27 1166.36V1191.18C821.27 1192.32 820.349 1193.24 819.214 1193.24ZM538.082 1184.33C536.947 1184.33 536.026 1183.41 536.026 1182.28V1157.46C536.026 1156.32 536.947 1155.4 538.082 1155.4C539.217 1155.4 540.138 1156.32 540.138 1157.46V1182.28C540.138 1183.42 539.221 1184.33 538.082 1184.33ZM819.214 1143.6C818.08 1143.6 817.159 1142.68 817.159 1141.55V1116.73C817.159 1115.6 818.08 1114.68 819.214 1114.68C820.349 1114.68 821.27 1115.6 821.27 1116.73V1141.55C821.27 1142.68 820.349 1143.6 819.214 1143.6ZM538.082 1134.7C536.947 1134.7 536.026 1133.78 536.026 1132.64V1107.83C536.026 1106.69 536.947 1105.77 538.082 1105.77C539.217 1105.77 540.138 1106.69 540.138 1107.83V1132.64C540.138 1133.78 539.221 1134.7 538.082 1134.7ZM819.214 1093.97C818.08 1093.97 817.159 1093.05 817.159 1091.92V1067.1C817.159 1065.97 818.08 1065.04 819.214 1065.04C820.349 1065.04 821.27 1065.97 821.27 1067.1V1091.92C821.27 1093.05 820.349 1093.97 819.214 1093.97ZM538.082 1085.07C536.947 1085.07 536.026 1084.14 536.026 1083.01V1058.2C536.026 1057.06 536.947 1056.14 538.082 1056.14C539.217 1056.14 540.138 1057.06 540.138 1058.2V1083.01C540.138 1084.14 539.221 1085.07 538.082 1085.07ZM819.214 1044.34C818.08 1044.34 817.159 1043.42 817.159 1042.28V1017.47C817.159 1016.33 818.08 1015.41 819.214 1015.41C820.349 1015.41 821.27 1016.33 821.27 1017.47V1042.28C821.27 1043.42 820.349 1044.34 819.214 1044.34ZM538.082 1035.43C536.947 1035.43 536.026 1034.51 536.026 1033.38V1008.56C536.026 1007.43 536.947 1006.51 538.082 1006.51C539.217 1006.51 540.138 1007.43 540.138 1008.56V1033.38C540.138 1034.51 539.221 1035.43 538.082 1035.43ZM819.214 994.703C818.08 994.703 817.159 993.782 817.159 992.647V967.828C817.159 966.694 818.08 965.773 819.214 965.773C820.349 965.773 821.27 966.694 821.27 967.828V992.647C821.27 993.786 820.349 994.703 819.214 994.703ZM538.082 985.798C536.947 985.798 536.026 984.877 536.026 983.743V958.924C536.026 957.789 536.947 956.868 538.082 956.868C539.217 956.868 540.138 957.789 540.138 958.924V983.743C540.138 984.881 539.221 985.798 538.082 985.798ZM819.214 945.069C818.08 945.069 817.159 944.148 817.159 943.013V918.199C817.159 917.064 818.08 916.143 819.214 916.143C820.349 916.143 821.27 917.064 821.27 918.199V943.013C821.27 944.148 820.349 945.069 819.214 945.069ZM538.082 936.164C536.947 936.164 536.026 935.243 536.026 934.109V917.816C536.026 916.682 536.947 915.761 538.082 915.761H546.608C547.743 915.761 548.664 916.682 548.664 917.816C548.664 918.951 547.743 919.872 546.608 919.872H540.138V934.109C540.138 935.243 539.221 936.164 538.082 936.164ZM794.778 919.872H769.959C768.824 919.872 767.903 918.951 767.903 917.816C767.903 916.682 768.824 915.761 769.959 915.761H794.778C795.912 915.761 796.833 916.682 796.833 917.816C796.833 918.951 795.916 919.872 794.778 919.872ZM745.144 919.872H720.325C719.19 919.872 718.269 918.951 718.269 917.816C718.269 916.682 719.19 915.761 720.325 915.761H745.144C746.278 915.761 747.199 916.682 747.199 917.816C747.199 918.951 746.278 919.872 745.144 919.872ZM695.51 919.872H670.691C669.556 919.872 668.635 918.951 668.635 917.816C668.635 916.682 669.556 915.761 670.691 915.761H695.51C696.645 915.761 697.565 916.682 697.565 917.816C697.565 918.951 696.649 919.872 695.51 919.872ZM645.876 919.872H621.057C619.922 919.872 619.002 918.951 619.002 917.816C619.002 916.682 619.922 915.761 621.057 915.761H645.876C647.011 915.761 647.932 916.682 647.932 917.816C647.932 918.951 647.011 919.872 645.876 919.872ZM596.242 919.872H571.423C570.289 919.872 569.368 918.951 569.368 917.816C569.368 916.682 570.289 915.761 571.423 915.761H596.242C597.377 915.761 598.298 916.682 598.298 917.816C598.298 918.951 597.381 919.872 596.242 919.872Z" fill="#25292B"/>
<path d="M803.69 1267.78H538.715C534.271 1267.78 530.636 1264.15 530.636 1259.7V1259.6C530.636 1255.16 534.271 1251.53 538.715 1251.53H803.69C808.134 1251.53 811.769 1255.16 811.769 1259.6V1259.7C811.769 1264.15 808.134 1267.78 803.69 1267.78Z" fill="#F2E9DA"/>
<path d="M803.69 1322.82H538.715C534.271 1322.82 530.636 1319.18 530.636 1314.74V1314.64C530.636 1310.2 534.271 1306.56 538.715 1306.56H803.69C808.134 1306.56 811.769 1310.2 811.769 1314.64V1314.74C811.769 1319.18 808.134 1322.82 803.69 1322.82Z" fill="#F2E9DA"/>
<path d="M803.69 1382.47H538.715C534.271 1382.47 530.636 1378.84 530.636 1374.4V1374.3C530.636 1369.85 534.271 1366.22 538.715 1366.22H803.69C808.134 1366.22 811.769 1369.85 811.769 1374.3V1374.4C811.769 1378.84 808.134 1382.47 803.69 1382.47Z" fill="#F2E9DA"/>
<path d="M803.69 1437.51H538.715C534.271 1437.51 530.636 1433.88 530.636 1429.43V1429.33C530.636 1424.89 534.271 1421.25 538.715 1421.25H803.69C808.134 1421.25 811.769 1424.89 811.769 1429.33V1429.43C811.769 1433.88 808.134 1437.51 803.69 1437.51Z" fill="#F2E9DA"/>
<path d="M1161.06 925.636H879.927V1206.77H1161.06V925.636Z" fill="#F2E9DA"/>
<path d="M1027.94 1168.05C967.469 1168.05 918.271 1118.86 918.271 1058.38C918.271 997.91 967.469 948.712 1027.94 948.712C1088.42 948.712 1137.61 997.91 1137.61 1058.38C1137.61 1118.86 1088.42 1168.05 1027.94 1168.05ZM1027.94 970.538C979.503 970.538 940.093 1009.95 940.093 1058.39C940.093 1106.83 979.503 1146.24 1027.94 1146.24C1076.38 1146.24 1115.79 1106.83 1115.79 1058.39C1115.79 1009.95 1076.38 970.538 1027.94 970.538Z" fill="#FFBD29"/>
<path d="M1095.22 1064.88L1002.36 1121.35C997.143 1124.5 990.524 1120.78 990.524 1114.68V1001.79C990.524 995.739 997.143 992.014 1002.36 995.172L1095.22 1051.6C1100.22 1054.62 1100.22 1061.85 1095.22 1064.88Z" fill="#FFBD29"/>
<path d="M1168.5 1201H1143.69C1142.55 1201 1141.63 1200.08 1141.63 1198.95C1141.63 1197.81 1142.55 1196.89 1143.69 1196.89H1168.5C1169.64 1196.89 1170.56 1197.81 1170.56 1198.95C1170.56 1200.08 1169.64 1201 1168.5 1201ZM1118.87 1201H1094.05C1092.92 1201 1092 1200.08 1092 1198.95C1092 1197.81 1092.92 1196.89 1094.05 1196.89H1118.87C1120.01 1196.89 1120.93 1197.81 1120.93 1198.95C1120.93 1200.08 1120.01 1201 1118.87 1201ZM1069.24 1201H1044.42C1043.28 1201 1042.36 1200.08 1042.36 1198.95C1042.36 1197.81 1043.28 1196.89 1044.42 1196.89H1069.24C1070.37 1196.89 1071.29 1197.81 1071.29 1198.95C1071.29 1200.08 1070.37 1201 1069.24 1201ZM1019.6 1201H994.784C993.65 1201 992.729 1200.08 992.729 1198.95C992.729 1197.81 993.65 1196.89 994.784 1196.89H1019.6C1020.74 1196.89 1021.66 1197.81 1021.66 1198.95C1021.66 1200.08 1020.74 1201 1019.6 1201ZM969.97 1201H945.151C944.016 1201 943.095 1200.08 943.095 1198.95C943.095 1197.81 944.016 1196.89 945.151 1196.89H969.97C971.104 1196.89 972.025 1197.81 972.025 1198.95C972.025 1200.08 971.104 1201 969.97 1201ZM920.336 1201H895.517C894.382 1201 893.461 1200.08 893.461 1198.95C893.461 1197.81 894.382 1196.89 895.517 1196.89H920.336C921.47 1196.89 922.391 1197.81 922.391 1198.95C922.391 1200.08 921.474 1201 920.336 1201ZM1168.5 1193.24C1167.37 1193.24 1166.45 1192.32 1166.45 1191.19V1166.37C1166.45 1165.23 1167.37 1164.31 1168.5 1164.31C1169.64 1164.31 1170.56 1165.23 1170.56 1166.37V1191.19C1170.56 1192.33 1169.64 1193.24 1168.5 1193.24ZM887.377 1184.33C886.242 1184.33 885.321 1183.41 885.321 1182.27V1157.46C885.321 1156.32 886.242 1155.4 887.377 1155.4C888.511 1155.4 889.432 1156.32 889.432 1157.46V1182.27C889.432 1183.41 888.511 1184.33 887.377 1184.33ZM1168.5 1143.61C1167.37 1143.61 1166.45 1142.69 1166.45 1141.55V1116.74C1166.45 1115.6 1167.37 1114.68 1168.5 1114.68C1169.64 1114.68 1170.56 1115.6 1170.56 1116.74V1141.55C1170.56 1142.69 1169.64 1143.61 1168.5 1143.61ZM887.377 1134.7C886.242 1134.7 885.321 1133.77 885.321 1132.64V1107.83C885.321 1106.69 886.242 1105.77 887.377 1105.77C888.511 1105.77 889.432 1106.69 889.432 1107.83V1132.64C889.432 1133.77 888.511 1134.7 887.377 1134.7ZM1168.5 1093.97C1167.37 1093.97 1166.45 1093.05 1166.45 1091.92V1067.1C1166.45 1065.97 1167.37 1065.05 1168.5 1065.05C1169.64 1065.05 1170.56 1065.97 1170.56 1067.1V1091.92C1170.56 1093.05 1169.64 1093.97 1168.5 1093.97ZM887.377 1085.07C886.242 1085.07 885.321 1084.14 885.321 1083.01V1058.19C885.321 1057.06 886.242 1056.14 887.377 1056.14C888.511 1056.14 889.432 1057.06 889.432 1058.19V1083.01C889.432 1084.14 888.511 1085.07 887.377 1085.07ZM1168.5 1044.34C1167.37 1044.34 1166.45 1043.42 1166.45 1042.29V1017.47C1166.45 1016.34 1167.37 1015.41 1168.5 1015.41C1169.64 1015.41 1170.56 1016.34 1170.56 1017.47V1042.29C1170.56 1043.42 1169.64 1044.34 1168.5 1044.34ZM887.377 1035.43C886.242 1035.43 885.321 1034.51 885.321 1033.38V1008.56C885.321 1007.42 886.242 1006.5 887.377 1006.5C888.511 1006.5 889.432 1007.42 889.432 1008.56V1033.38C889.432 1034.51 888.511 1035.43 887.377 1035.43ZM1168.5 994.707C1167.37 994.707 1166.45 993.786 1166.45 992.651V967.833C1166.45 966.698 1167.37 965.777 1168.5 965.777C1169.64 965.777 1170.56 966.698 1170.56 967.833V992.651C1170.56 993.79 1169.64 994.707 1168.5 994.707ZM887.377 985.794C886.242 985.794 885.321 984.873 885.321 983.739V958.924C885.321 957.789 886.242 956.868 887.377 956.868C888.511 956.868 889.432 957.789 889.432 958.924V983.739C889.432 984.877 888.511 985.794 887.377 985.794ZM1168.5 945.073C1167.37 945.073 1166.45 944.152 1166.45 943.018V918.203C1166.45 917.068 1167.37 916.147 1168.5 916.147C1169.64 916.147 1170.56 917.068 1170.56 918.203V943.018C1170.56 944.152 1169.64 945.073 1168.5 945.073ZM887.377 936.16C886.242 936.16 885.321 935.239 885.321 934.105V917.816C885.321 916.682 886.242 915.761 887.377 915.761H895.903C897.038 915.761 897.959 916.682 897.959 917.816C897.959 918.951 897.038 919.872 895.903 919.872H889.432V934.105C889.432 935.239 888.511 936.16 887.377 936.16ZM1144.07 919.872H1119.25C1118.12 919.872 1117.2 918.951 1117.2 917.816C1117.2 916.682 1118.12 915.761 1119.25 915.761H1144.07C1145.21 915.761 1146.13 916.682 1146.13 917.816C1146.13 918.951 1145.21 919.872 1144.07 919.872ZM1094.44 919.872H1069.62C1068.48 919.872 1067.56 918.951 1067.56 917.816C1067.56 916.682 1068.48 915.761 1069.62 915.761H1094.44C1095.57 915.761 1096.49 916.682 1096.49 917.816C1096.49 918.951 1095.57 919.872 1094.44 919.872ZM1044.8 919.872H1019.99C1018.85 919.872 1017.93 918.951 1017.93 917.816C1017.93 916.682 1018.85 915.761 1019.99 915.761H1044.8C1045.94 915.761 1046.86 916.682 1046.86 917.816C1046.86 918.951 1045.94 919.872 1044.8 919.872ZM995.171 919.872H970.352C969.217 919.872 968.296 918.951 968.296 917.816C968.296 916.682 969.217 915.761 970.352 915.761H995.171C996.305 915.761 997.226 916.682 997.226 917.816C997.226 918.951 996.305 919.872 995.171 919.872ZM945.537 919.872H920.718C919.583 919.872 918.662 918.951 918.662 917.816C918.662 916.682 919.583 915.761 920.718 915.761H945.537C946.672 915.761 947.593 916.682 947.593 917.816C947.593 918.951 946.676 919.872 945.537 919.872Z" fill="#25292B"/>
<path d="M1152.98 1267.78H888.006C883.561 1267.78 879.927 1264.15 879.927 1259.7V1259.6C879.927 1255.16 883.561 1251.53 888.006 1251.53H1152.98C1157.43 1251.53 1161.06 1255.16 1161.06 1259.6V1259.7C1161.06 1264.15 1157.43 1267.78 1152.98 1267.78Z" fill="#F2E9DA"/>
<path d="M1152.98 1322.82H888.006C883.561 1322.82 879.927 1319.18 879.927 1314.74V1314.64C879.927 1310.2 883.561 1306.56 888.006 1306.56H1152.98C1157.43 1306.56 1161.06 1310.2 1161.06 1314.64V1314.74C1161.06 1319.18 1157.43 1322.82 1152.98 1322.82Z" fill="#F2E9DA"/>
<path d="M1152.98 1382.47H888.006C883.561 1382.47 879.927 1378.84 879.927 1374.4V1374.3C879.927 1369.85 883.561 1366.22 888.006 1366.22H1152.98C1157.43 1366.22 1161.06 1369.85 1161.06 1374.3V1374.4C1161.06 1378.84 1157.43 1382.47 1152.98 1382.47Z" fill="#F2E9DA"/>
<path d="M1152.98 1437.51H888.006C883.561 1437.51 879.927 1433.88 879.927 1429.43V1429.33C879.927 1424.89 883.561 1421.25 888.006 1421.25H1152.98C1157.43 1421.25 1161.06 1424.89 1161.06 1429.33V1429.43C1161.06 1433.88 1157.43 1437.51 1152.98 1437.51Z" fill="#F2E9DA"/>
<path d="M1507.36 925.636H1226.23V1206.77H1507.36V925.636Z" fill="#F2E9DA"/>
<path d="M1374.24 1168.05C1313.77 1168.05 1264.57 1118.86 1264.57 1058.38C1264.57 997.91 1313.77 948.712 1374.24 948.712C1434.71 948.712 1483.91 997.91 1483.91 1058.38C1483.91 1118.86 1434.71 1168.05 1374.24 1168.05ZM1374.24 970.538C1325.8 970.538 1286.39 1009.95 1286.39 1058.39C1286.39 1106.83 1325.8 1146.24 1374.24 1146.24C1422.68 1146.24 1462.09 1106.83 1462.09 1058.39C1462.09 1009.95 1422.68 970.538 1374.24 970.538Z" fill="#FFBD29"/>
<path d="M1441.52 1064.88L1348.66 1121.35C1343.44 1124.5 1336.82 1120.78 1336.82 1114.68V1001.79C1336.82 995.739 1343.44 992.014 1348.66 995.172L1441.52 1051.6C1446.52 1054.62 1446.52 1061.85 1441.52 1064.88Z" fill="#FFBD29"/>
<path d="M1514.81 1201H1489.99C1488.86 1201 1487.94 1200.08 1487.94 1198.95C1487.94 1197.81 1488.86 1196.89 1489.99 1196.89H1514.81C1515.94 1196.89 1516.86 1197.81 1516.86 1198.95C1516.86 1200.08 1515.94 1201 1514.81 1201ZM1465.17 1201H1440.36C1439.22 1201 1438.3 1200.08 1438.3 1198.95C1438.3 1197.81 1439.22 1196.89 1440.36 1196.89H1465.17C1466.31 1196.89 1467.23 1197.81 1467.23 1198.95C1467.23 1200.08 1466.31 1201 1465.17 1201ZM1415.54 1201H1390.72C1389.59 1201 1388.67 1200.08 1388.67 1198.95C1388.67 1197.81 1389.59 1196.89 1390.72 1196.89H1415.54C1416.67 1196.89 1417.6 1197.81 1417.6 1198.95C1417.6 1200.08 1416.68 1201 1415.54 1201ZM1365.91 1201H1341.09C1339.95 1201 1339.03 1200.08 1339.03 1198.95C1339.03 1197.81 1339.95 1196.89 1341.09 1196.89H1365.91C1367.04 1196.89 1367.96 1197.81 1367.96 1198.95C1367.96 1200.08 1367.04 1201 1365.91 1201ZM1316.27 1201H1291.46C1290.32 1201 1289.4 1200.08 1289.4 1198.95C1289.4 1197.81 1290.32 1196.89 1291.46 1196.89H1316.27C1317.41 1196.89 1318.33 1197.81 1318.33 1198.95C1318.33 1200.08 1317.41 1201 1316.27 1201ZM1266.64 1201H1241.82C1240.68 1201 1239.76 1200.08 1239.76 1198.95C1239.76 1197.81 1240.68 1196.89 1241.82 1196.89H1266.64C1267.77 1196.89 1268.69 1197.81 1268.69 1198.95C1268.69 1200.08 1267.78 1201 1266.64 1201ZM1514.81 1193.24C1513.67 1193.24 1512.75 1192.32 1512.75 1191.18V1166.36C1512.75 1165.23 1513.67 1164.31 1514.81 1164.31C1515.94 1164.31 1516.86 1165.23 1516.86 1166.36V1191.18C1516.86 1192.32 1515.94 1193.24 1514.81 1193.24ZM1233.67 1184.33C1232.54 1184.33 1231.62 1183.41 1231.62 1182.28V1157.46C1231.62 1156.32 1232.54 1155.4 1233.67 1155.4C1234.81 1155.4 1235.73 1156.32 1235.73 1157.46V1182.28C1235.73 1183.42 1234.81 1184.33 1233.67 1184.33ZM1514.81 1143.6C1513.67 1143.6 1512.75 1142.68 1512.75 1141.55V1116.73C1512.75 1115.6 1513.67 1114.68 1514.81 1114.68C1515.94 1114.68 1516.86 1115.6 1516.86 1116.73V1141.55C1516.86 1142.68 1515.94 1143.6 1514.81 1143.6ZM1233.67 1134.7C1232.54 1134.7 1231.62 1133.78 1231.62 1132.64V1107.83C1231.62 1106.69 1232.54 1105.77 1233.67 1105.77C1234.81 1105.77 1235.73 1106.69 1235.73 1107.83V1132.64C1235.73 1133.78 1234.81 1134.7 1233.67 1134.7ZM1514.81 1093.97C1513.67 1093.97 1512.75 1093.05 1512.75 1091.92V1067.1C1512.75 1065.97 1513.67 1065.04 1514.81 1065.04C1515.94 1065.04 1516.86 1065.97 1516.86 1067.1V1091.92C1516.86 1093.05 1515.94 1093.97 1514.81 1093.97ZM1233.67 1085.07C1232.54 1085.07 1231.62 1084.14 1231.62 1083.01V1058.2C1231.62 1057.06 1232.54 1056.14 1233.67 1056.14C1234.81 1056.14 1235.73 1057.06 1235.73 1058.2V1083.01C1235.73 1084.14 1234.81 1085.07 1233.67 1085.07ZM1514.81 1044.34C1513.67 1044.34 1512.75 1043.42 1512.75 1042.28V1017.47C1512.75 1016.33 1513.67 1015.41 1514.81 1015.41C1515.94 1015.41 1516.86 1016.33 1516.86 1017.47V1042.28C1516.86 1043.42 1515.94 1044.34 1514.81 1044.34ZM1233.67 1035.43C1232.54 1035.43 1231.62 1034.51 1231.62 1033.38V1008.56C1231.62 1007.43 1232.54 1006.51 1233.67 1006.51C1234.81 1006.51 1235.73 1007.43 1235.73 1008.56V1033.38C1235.73 1034.51 1234.81 1035.43 1233.67 1035.43ZM1514.81 994.703C1513.67 994.703 1512.75 993.782 1512.75 992.647V967.828C1512.75 966.694 1513.67 965.773 1514.81 965.773C1515.94 965.773 1516.86 966.694 1516.86 967.828V992.647C1516.86 993.786 1515.94 994.703 1514.81 994.703ZM1233.67 985.798C1232.54 985.798 1231.62 984.877 1231.62 983.743V958.924C1231.62 957.789 1232.54 956.868 1233.67 956.868C1234.81 956.868 1235.73 957.789 1235.73 958.924V983.743C1235.73 984.881 1234.81 985.798 1233.67 985.798ZM1514.81 945.069C1513.67 945.069 1512.75 944.148 1512.75 943.013V918.199C1512.75 917.064 1513.67 916.143 1514.81 916.143C1515.94 916.143 1516.86 917.064 1516.86 918.199V943.013C1516.86 944.148 1515.94 945.069 1514.81 945.069ZM1233.67 936.164C1232.54 936.164 1231.62 935.243 1231.62 934.109V917.816C1231.62 916.682 1232.54 915.761 1233.67 915.761H1242.2C1243.34 915.761 1244.26 916.682 1244.26 917.816C1244.26 918.951 1243.34 919.872 1242.2 919.872H1235.73V934.109C1235.73 935.243 1234.81 936.164 1233.67 936.164ZM1490.37 919.872H1465.56C1464.42 919.872 1463.5 918.951 1463.5 917.816C1463.5 916.682 1464.42 915.761 1465.56 915.761H1490.37C1491.51 915.761 1492.43 916.682 1492.43 917.816C1492.43 918.951 1491.51 919.872 1490.37 919.872ZM1440.74 919.872H1415.92C1414.78 919.872 1413.86 918.951 1413.86 917.816C1413.86 916.682 1414.78 915.761 1415.92 915.761H1440.74C1441.87 915.761 1442.79 916.682 1442.79 917.816C1442.79 918.951 1441.88 919.872 1440.74 919.872ZM1391.1 919.872H1366.28C1365.15 919.872 1364.23 918.951 1364.23 917.816C1364.23 916.682 1365.15 915.761 1366.28 915.761H1391.1C1392.24 915.761 1393.16 916.682 1393.16 917.816C1393.16 918.951 1392.24 919.872 1391.1 919.872ZM1341.47 919.872H1316.65C1315.52 919.872 1314.6 918.951 1314.6 917.816C1314.6 916.682 1315.52 915.761 1316.65 915.761H1341.47C1342.6 915.761 1343.52 916.682 1343.52 917.816C1343.52 918.951 1342.6 919.872 1341.47 919.872ZM1291.84 919.872H1267.02C1265.89 919.872 1264.96 918.951 1264.96 917.816C1264.96 916.682 1265.89 915.761 1267.02 915.761H1291.84C1292.97 915.761 1293.89 916.682 1293.89 917.816C1293.89 918.951 1292.97 919.872 1291.84 919.872Z" fill="#25292B"/>
<path d="M1499.28 1267.78H1234.31C1229.86 1267.78 1226.23 1264.15 1226.23 1259.7V1259.6C1226.23 1255.16 1229.86 1251.53 1234.31 1251.53H1499.28C1503.73 1251.53 1507.36 1255.16 1507.36 1259.6V1259.7C1507.36 1264.15 1503.72 1267.78 1499.28 1267.78Z" fill="#F2E9DA"/>
<path d="M1499.28 1322.82H1234.31C1229.86 1322.82 1226.23 1319.18 1226.23 1314.74V1314.64C1226.23 1310.2 1229.86 1306.56 1234.31 1306.56H1499.28C1503.73 1306.56 1507.36 1310.2 1507.36 1314.64V1314.74C1507.36 1319.18 1503.72 1322.82 1499.28 1322.82Z" fill="#F2E9DA"/>
<path d="M1499.28 1382.47H1234.31C1229.86 1382.47 1226.23 1378.84 1226.23 1374.4V1374.3C1226.23 1369.85 1229.86 1366.22 1234.31 1366.22H1499.28C1503.73 1366.22 1507.36 1369.85 1507.36 1374.3V1374.4C1507.36 1378.84 1503.72 1382.47 1499.28 1382.47Z" fill="#F2E9DA"/>
<path d="M1499.28 1437.51H1234.31C1229.86 1437.51 1226.23 1433.88 1226.23 1429.43V1429.33C1226.23 1424.89 1229.86 1421.25 1234.31 1421.25H1499.28C1503.73 1421.25 1507.36 1424.89 1507.36 1429.33V1429.43C1507.36 1433.88 1503.72 1437.51 1499.28 1437.51Z" fill="#F2E9DA"/>
<path d="M1304.26 1525.49L1237.55 1592.2H564.019C556.82 1592.2 550.164 1589.89 544.705 1586C538.957 1581.91 534.53 1576.03 532.297 1569.17C531.22 1565.94 530.645 1562.46 530.645 1558.87C530.645 1549.68 534.41 1541.33 540.445 1535.29C546.481 1529.25 554.839 1525.49 564.023 1525.49H1304.26Z" fill="#FFBD29"/>
<path d="M1556.9 1558.87C1556.9 1568.01 1553.13 1576.36 1547.1 1582.4C1541.06 1588.48 1532.7 1592.2 1523.52 1592.2H1237.54L1304.26 1525.49H1523.51C1541.88 1525.49 1556.9 1540.5 1556.9 1558.87Z" fill="#25292B"/>
<path d="M1276.3 1525.49L1209.58 1592.2H1180.38L1247.06 1525.49H1276.3Z" fill="white"/>
<path d="M1215.29 1525.49L1148.58 1592.2H1119.38L1186.05 1525.49H1215.29Z" fill="white"/>
<path d="M1154.28 1525.49L1087.57 1592.2H1058.37L1125.04 1525.49H1154.28Z" fill="white"/>
<path d="M1093.27 1525.49L1026.56 1592.2H997.357L1064.03 1525.49H1093.27Z" fill="white"/>
<path d="M1032.27 1525.49L965.553 1592.2H936.311L1003.03 1525.49H1032.27Z" fill="white"/>
<path d="M971.26 1525.49L904.545 1592.2H875.302L942.018 1525.49H971.26Z" fill="white"/>
<path d="M910.25 1525.49L843.535 1592.2H814.292L881.008 1525.49H910.25Z" fill="white"/>
<path d="M849.245 1525.49L782.525 1592.2H753.283L820.002 1525.49H849.245Z" fill="white"/>
<path d="M788.236 1525.49L721.52 1592.2H692.278L758.993 1525.49H788.236Z" fill="white"/>
<path d="M727.227 1525.49L660.511 1592.2H631.268L697.984 1525.49H727.227Z" fill="white"/>
<path d="M666.218 1525.49L599.502 1592.2H570.26L636.975 1525.49H666.218Z" fill="white"/>
<path d="M605.212 1525.49L544.7 1586C538.952 1581.91 534.525 1576.03 532.292 1569.17L575.969 1525.49H605.212Z" fill="white"/>
<path d="M1827.24 689.332C1867.75 1308.29 2100.04 1428.47 2100.04 1428.47C2100.04 1428.47 2198.56 1186.19 1827.24 689.332Z" fill="#FFA727"/>
<path d="M1869.93 799.888L1866.62 801.108L2090.41 1407.34L2093.72 1406.12L1869.93 799.888Z" fill="#25292B"/>
<path d="M1938.41 990.534L1861.45 912.02L1863.97 909.553L1935.43 982.452L1942.38 880.61L1945.9 880.849L1938.41 990.534Z" fill="#25292B"/>
<path d="M2054.55 1305.19L1977.59 1226.68L1980.11 1224.21L2051.56 1297.11L2058.52 1195.27L2062.04 1195.51L2054.55 1305.19Z" fill="#25292B"/>
<path d="M1992.73 1137.73L1915.78 1059.22L1918.3 1056.76L1989.75 1129.65L1996.71 1027.81L2000.23 1028.05L1992.73 1137.73Z" fill="#25292B"/>
<path d="M2373.12 689.335C2332.61 1308.3 2100.32 1428.47 2100.32 1428.47C2100.32 1428.47 2001.8 1186.2 2373.12 689.335Z" fill="#FFA727"/>
<path d="M2330.31 800.147L2106.71 1406.44L2110.02 1407.66L2333.61 801.367L2330.31 800.147Z" fill="#25292B"/>
<path d="M2261.95 990.534L2254.45 880.849L2257.97 880.61L2264.93 982.456L2336.39 909.553L2338.91 912.02L2261.95 990.534Z" fill="#25292B"/>
<path d="M2145.82 1305.19L2138.32 1195.51L2141.84 1195.27L2148.8 1297.11L2220.25 1224.21L2222.77 1226.68L2145.82 1305.19Z" fill="#25292B"/>
<path d="M2207.62 1137.73L2200.13 1028.05L2203.64 1027.81L2210.6 1129.65L2282.06 1056.76L2284.58 1059.22L2207.62 1137.73Z" fill="#25292B"/>
<path d="M2100.22 640.598C2276.54 1235.3 2100.22 1428.47 2100.22 1428.47C2100.22 1428.47 1923.91 1235.3 2100.22 640.598Z" fill="#FFBD29"/>
<path d="M2101.99 759.245H2098.46V1405.48H2101.99V759.245Z" fill="#25292B"/>
<path d="M2100.23 961.661L2055.22 861.354L2058.43 859.906L2100.23 953.04L2142.01 859.906L2145.23 861.354L2100.23 961.661Z" fill="#25292B"/>
<path d="M2100.23 1297.07L2055.22 1196.76L2058.43 1195.31L2100.23 1288.45L2142.01 1195.31L2145.23 1196.76L2100.23 1297.07Z" fill="#25292B"/>
<path d="M2100.23 1118.57L2055.22 1018.26L2058.43 1016.81L2100.23 1109.95L2142.01 1016.81L2145.23 1018.26L2100.23 1118.57Z" fill="#25292B"/>
<path d="M2020.57 1678.29L1973 1335.93H2227.36L2181.3 1676.62L2020.57 1678.29Z" fill="#F2D9AF"/>
<path d="M2020.57 1680.34C2019.55 1680.34 2018.68 1679.59 2018.54 1678.57L1970.96 1336.22C1970.88 1335.63 1971.06 1335.03 1971.45 1334.59C1971.84 1334.14 1972.4 1333.88 1973 1333.88H2227.37C2227.96 1333.88 2228.52 1334.14 2228.92 1334.58C2229.31 1335.03 2229.48 1335.62 2229.4 1336.21L2183.34 1676.9C2183.2 1677.91 2182.35 1678.67 2181.32 1678.68L2020.59 1680.34C2020.59 1680.34 2020.58 1680.34 2020.57 1680.34ZM1975.36 1337.99L2022.36 1676.21L2179.51 1674.58L2225.01 1337.99H1975.36Z" fill="#25292B"/>
<path d="M960.25 698.865H955.041C953.907 698.865 952.986 697.944 952.986 696.809C952.986 695.674 953.907 694.754 955.041 694.754H960.25C965.952 694.754 971.19 692.135 974.619 687.567C975.301 686.659 976.588 686.478 977.496 687.156C978.405 687.839 978.586 689.125 977.907 690.034C973.694 695.65 967.26 698.865 960.25 698.865ZM931.271 698.865H907.5C906.365 698.865 905.444 697.944 905.444 696.809C905.444 695.674 906.365 694.754 907.5 694.754H931.271C932.405 694.754 933.326 695.674 933.326 696.809C933.326 697.944 932.405 698.865 931.271 698.865ZM883.729 698.865H859.959C858.824 698.865 857.903 697.944 857.903 696.809C857.903 695.674 858.824 694.754 859.959 694.754H883.729C884.864 694.754 885.785 695.674 885.785 696.809C885.785 697.944 884.864 698.865 883.729 698.865ZM836.184 698.865H812.413C811.279 698.865 810.358 697.944 810.358 696.809C810.358 695.674 811.279 694.754 812.413 694.754H836.184C837.319 694.754 838.24 695.674 838.24 696.809C838.24 697.944 837.319 698.865 836.184 698.865ZM788.639 698.865H764.868C763.733 698.865 762.812 697.944 762.812 696.809C762.812 695.674 763.733 694.754 764.868 694.754H788.639C789.773 694.754 790.694 695.674 790.694 696.809C790.694 697.944 789.773 698.865 788.639 698.865ZM741.097 698.865H717.327C716.192 698.865 715.271 697.944 715.271 696.809C715.271 695.674 716.192 694.754 717.327 694.754H741.097C742.232 694.754 743.153 695.674 743.153 696.809C743.153 697.944 742.232 698.865 741.097 698.865ZM693.552 698.865H669.781C668.647 698.865 667.726 697.944 667.726 696.809C667.726 695.674 668.647 694.754 669.781 694.754H693.552C694.687 694.754 695.608 695.674 695.608 696.809C695.608 697.944 694.691 698.865 693.552 698.865ZM646.011 698.865H622.24C621.105 698.865 620.185 697.944 620.185 696.809C620.185 695.674 621.105 694.754 622.24 694.754H646.011C647.145 694.754 648.066 695.674 648.066 696.809C648.066 697.944 647.145 698.865 646.011 698.865ZM598.465 698.865H592.739C585.955 698.865 579.649 695.814 575.435 690.494C574.732 689.606 574.88 688.311 575.772 687.604C576.66 686.893 577.955 687.049 578.662 687.941C582.091 692.27 587.226 694.754 592.743 694.754H598.47C599.604 694.754 600.525 695.674 600.525 696.809C600.525 697.944 599.6 698.865 598.465 698.865ZM572.73 668.483C571.595 668.483 570.674 667.563 570.674 666.428V642.657C570.674 641.523 571.595 640.602 572.73 640.602C573.864 640.602 574.785 641.523 574.785 642.657V666.428C574.785 667.567 573.864 668.483 572.73 668.483ZM980.255 667.961C979.12 667.961 978.199 667.04 978.199 665.906V642.135C978.199 641 979.12 640.08 980.255 640.08C981.39 640.08 982.31 641 982.31 642.135V665.906C982.31 667.045 981.394 667.961 980.255 667.961ZM572.73 620.942C571.595 620.942 570.674 620.021 570.674 618.887V595.116C570.674 593.981 571.595 593.06 572.73 593.06C573.864 593.06 574.785 593.981 574.785 595.116V618.887C574.785 620.021 573.864 620.942 572.73 620.942ZM980.255 620.42C979.12 620.42 978.199 619.499 978.199 618.364V594.594C978.199 593.459 979.12 592.538 980.255 592.538C981.39 592.538 982.31 593.459 982.31 594.594V618.364C982.31 619.499 981.394 620.42 980.255 620.42ZM572.73 573.397C571.595 573.397 570.674 572.476 570.674 571.341V547.571C570.674 546.436 571.595 545.515 572.73 545.515C573.864 545.515 574.785 546.436 574.785 547.571V571.341C574.785 572.48 573.864 573.397 572.73 573.397ZM980.255 572.875C979.12 572.875 978.199 571.954 978.199 570.819V547.048C978.199 545.914 979.12 544.993 980.255 544.993C981.39 544.993 982.31 545.914 982.31 547.048V570.819C982.31 571.954 981.394 572.875 980.255 572.875ZM572.73 525.856C571.595 525.856 570.674 524.935 570.674 523.8V500.025C570.674 498.891 571.595 497.97 572.73 497.97C573.864 497.97 574.785 498.891 574.785 500.025V523.8C574.785 524.935 573.864 525.856 572.73 525.856ZM980.255 525.329C979.12 525.329 978.199 524.408 978.199 523.274V499.503C978.199 498.368 979.12 497.448 980.255 497.448C981.39 497.448 982.31 498.368 982.31 499.503V523.274C982.31 524.413 981.394 525.329 980.255 525.329ZM572.73 478.31C571.595 478.31 570.674 477.389 570.674 476.255V452.484C570.674 451.349 571.595 450.428 572.73 450.428C573.864 450.428 574.785 451.349 574.785 452.484V476.255C574.785 477.389 573.864 478.31 572.73 478.31ZM980.255 477.788C979.12 477.788 978.199 476.867 978.199 475.733V451.962C978.199 450.827 979.12 449.906 980.255 449.906C981.39 449.906 982.31 450.827 982.31 451.962V475.733C982.31 476.867 981.394 477.788 980.255 477.788ZM572.73 430.765C571.595 430.765 570.674 429.844 570.674 428.709V404.939C570.674 403.804 571.595 402.883 572.73 402.883C573.864 402.883 574.785 403.804 574.785 404.939V428.709C574.785 429.848 573.864 430.765 572.73 430.765ZM980.255 430.243C979.12 430.243 978.199 429.322 978.199 428.187V404.417C978.199 403.282 979.12 402.361 980.255 402.361C981.39 402.361 982.31 403.282 982.31 404.417V428.187C982.31 429.326 981.394 430.243 980.255 430.243ZM572.73 383.224C571.595 383.224 570.674 382.303 570.674 381.168V357.397C570.674 356.263 571.595 355.342 572.73 355.342C573.864 355.342 574.785 356.263 574.785 357.397V381.168C574.785 382.303 573.864 383.224 572.73 383.224ZM980.255 382.701C979.12 382.701 978.199 381.781 978.199 380.646V356.875C978.199 355.741 979.12 354.82 980.255 354.82C981.39 354.82 982.31 355.741 982.31 356.875V380.646C982.31 381.781 981.394 382.701 980.255 382.701ZM572.73 335.682C571.595 335.682 570.674 334.761 570.674 333.627V309.852C570.674 308.717 571.595 307.796 572.73 307.796C573.864 307.796 574.785 308.717 574.785 309.852V333.627C574.785 334.761 573.864 335.682 572.73 335.682ZM980.255 335.156C979.12 335.156 978.199 334.235 978.199 333.101V309.33C978.199 308.787 978.409 308.294 978.754 307.928C978.36 307.616 978.08 307.159 978.002 306.625C976.917 299.451 971.445 293.518 964.382 291.858C963.276 291.599 962.589 290.489 962.848 289.387C963.107 288.277 964.226 287.607 965.319 287.853C974.002 289.897 980.732 297.19 982.064 306.012C982.158 306.658 981.945 307.278 981.533 307.722C982.006 308.101 982.31 308.68 982.31 309.334V333.105C982.31 334.235 981.394 335.156 980.255 335.156ZM584.771 293.025C583.978 293.025 583.221 292.565 582.888 291.788C582.436 290.748 582.913 289.535 583.953 289.083C586.732 287.878 589.688 287.265 592.739 287.265H608.316C609.45 287.265 610.371 288.186 610.371 289.321C610.371 290.456 609.45 291.377 608.316 291.377H592.739C590.255 291.377 587.85 291.874 585.593 292.852C585.326 292.972 585.047 293.025 584.771 293.025ZM941.121 291.377H917.35C916.216 291.377 915.295 290.456 915.295 289.321C915.295 288.186 916.216 287.265 917.35 287.265H941.121C942.256 287.265 943.177 288.186 943.177 289.321C943.177 290.456 942.256 291.377 941.121 291.377ZM893.58 291.377H869.809C868.674 291.377 867.753 290.456 867.753 289.321C867.753 288.186 868.674 287.265 869.809 287.265H893.58C894.714 287.265 895.635 288.186 895.635 289.321C895.635 290.456 894.714 291.377 893.58 291.377ZM846.034 291.377H822.26C821.125 291.377 820.204 290.456 820.204 289.321C820.204 288.186 821.125 287.265 822.26 287.265H846.034C847.169 287.265 848.09 288.186 848.09 289.321C848.09 290.456 847.169 291.377 846.034 291.377ZM798.489 291.377H774.718C773.584 291.377 772.663 290.456 772.663 289.321C772.663 288.186 773.584 287.265 774.718 287.265H798.489C799.624 287.265 800.545 288.186 800.545 289.321C800.545 290.456 799.624 291.377 798.489 291.377ZM750.948 291.377H727.177C726.042 291.377 725.121 290.456 725.121 289.321C725.121 288.186 726.042 287.265 727.177 287.265H750.948C752.082 287.265 753.003 288.186 753.003 289.321C753.003 290.456 752.082 291.377 750.948 291.377ZM703.402 291.377H679.632C678.497 291.377 677.576 290.456 677.576 289.321C677.576 288.186 678.497 287.265 679.632 287.265H703.402C704.537 287.265 705.458 288.186 705.458 289.321C705.458 290.456 704.541 291.377 703.402 291.377ZM655.857 291.377H632.086C630.952 291.377 630.031 290.456 630.031 289.321C630.031 288.186 630.952 287.265 632.086 287.265H655.857C656.992 287.265 657.913 288.186 657.913 289.321C657.913 290.456 656.996 291.377 655.857 291.377Z" fill="#25292B"/>
<path d="M1759.88 842.718C1759.28 842.718 1758.72 842.393 1758.42 841.871L1742.46 814.248C1742.16 813.726 1742.16 813.08 1742.46 812.558L1758.42 784.94C1758.72 784.418 1759.28 784.093 1759.88 784.093C1760.49 784.093 1761.05 784.413 1761.35 784.936L1777.34 812.554C1777.64 813.08 1777.64 813.726 1777.34 814.252L1761.35 841.875C1761.04 842.397 1760.49 842.718 1759.88 842.718ZM1745.88 813.405L1759.88 837.649L1773.92 813.405L1759.88 789.166L1745.88 813.405Z" fill="#25292B"/>
<path d="M1715.51 809.623C1710.2 809.623 1705.88 805.298 1705.88 799.987C1705.88 794.675 1710.2 790.354 1715.51 790.354C1720.82 790.354 1725.14 794.675 1725.14 799.987C1725.14 805.298 1720.82 809.623 1715.51 809.623ZM1715.51 793.738C1712.06 793.738 1709.26 796.542 1709.26 799.987C1709.26 803.436 1712.06 806.24 1715.51 806.24C1718.96 806.24 1721.76 803.436 1721.76 799.987C1721.76 796.542 1718.96 793.738 1715.51 793.738Z" fill="#25292B"/>
<path d="M1743.92 774.181C1739.28 774.181 1735.51 770.403 1735.51 765.761C1735.51 761.124 1739.28 757.346 1743.92 757.346C1748.57 757.346 1752.34 761.124 1752.34 765.761C1752.34 770.407 1748.57 774.181 1743.92 774.181ZM1743.92 760.733C1741.15 760.733 1738.89 762.99 1738.89 765.765C1738.89 768.54 1741.15 770.802 1743.92 770.802C1746.7 770.802 1748.96 768.54 1748.96 765.765C1748.96 762.99 1746.7 760.733 1743.92 760.733Z" fill="#25292B"/>
<path d="M1707.57 778.058C1704.13 778.058 1701.33 775.262 1701.33 771.825C1701.33 768.388 1704.13 765.593 1707.57 765.593C1711 765.593 1713.8 768.392 1713.8 771.825C1713.8 775.258 1711 778.058 1707.57 778.058ZM1707.57 768.976C1706 768.976 1704.72 770.255 1704.72 771.829C1704.72 773.4 1706 774.678 1707.57 774.678C1709.14 774.678 1710.41 773.4 1710.41 771.829C1710.41 770.255 1709.14 768.976 1707.57 768.976Z" fill="#25292B"/>
<path d="M1001.84 210.934C1001.23 210.934 1000.68 210.613 1000.37 210.087L988.169 188.952C987.865 188.429 987.865 187.784 988.169 187.262L1000.37 166.126C1000.68 165.604 1001.23 165.28 1001.84 165.28C1002.44 165.28 1003 165.6 1003.3 166.122L1015.54 187.258C1015.85 187.78 1015.85 188.429 1015.54 188.952L1003.3 210.087C1003 210.609 1002.44 210.934 1001.84 210.934ZM991.581 188.109L1001.84 205.865L1012.12 188.109L1001.84 170.353L991.581 188.109Z" fill="#25292B"/>
<path d="M972.954 179.204C967.642 179.204 963.317 174.879 963.317 169.567C963.317 164.252 967.642 159.931 972.954 159.931C978.266 159.931 982.586 164.252 982.586 169.567C982.586 174.883 978.266 179.204 972.954 179.204ZM972.954 163.314C969.505 163.314 966.701 166.118 966.701 169.567C966.701 173.017 969.505 175.82 972.954 175.82C976.399 175.82 979.203 173.017 979.203 169.567C979.203 166.122 976.399 163.314 972.954 163.314Z" fill="#25292B"/>
<path d="M1001.37 155.372C996.728 155.372 992.95 151.594 992.95 146.952C992.95 142.311 996.728 138.537 1001.37 138.537C1006.01 138.537 1009.79 142.315 1009.79 146.952C1009.79 151.598 1006.01 155.372 1001.37 155.372ZM1001.37 141.92C998.595 141.92 996.334 144.177 996.334 146.952C996.334 149.727 998.595 151.988 1001.37 151.988C1004.14 151.988 1006.41 149.731 1006.41 146.952C1006.4 144.181 1004.14 141.92 1001.37 141.92Z" fill="#25292B"/>
<path d="M972.953 146.459C969.516 146.459 966.721 143.663 966.721 140.226C966.721 136.789 969.516 133.994 972.953 133.994C976.39 133.994 979.186 136.789 979.186 140.226C979.186 143.663 976.39 146.459 972.953 146.459ZM972.953 137.381C971.383 137.381 970.104 138.66 970.104 140.23C970.104 141.801 971.383 143.08 972.953 143.08C974.524 143.08 975.802 141.801 975.802 140.23C975.802 138.66 974.524 137.381 972.953 137.381Z" fill="#25292B"/>
<path d="M2330.45 1493.77C2329.85 1493.77 2329.29 1493.45 2328.99 1492.92L2313.03 1465.3C2312.73 1464.78 2312.73 1464.13 2313.03 1463.61L2328.99 1435.99C2329.29 1435.47 2329.85 1435.15 2330.45 1435.15C2331.06 1435.15 2331.61 1435.47 2331.92 1435.99L2347.91 1463.61C2348.21 1464.13 2348.21 1464.78 2347.91 1465.31L2331.92 1492.93C2331.61 1493.45 2331.05 1493.77 2330.45 1493.77ZM2316.45 1464.46L2330.45 1488.7L2344.48 1464.46L2330.45 1440.22L2316.45 1464.46Z" fill="#25292B"/>
<path d="M2264.43 1444.78C2259.12 1444.78 2254.8 1440.46 2254.8 1435.15C2254.8 1429.84 2259.12 1425.51 2264.43 1425.51C2269.74 1425.51 2274.07 1429.84 2274.07 1435.15C2274.07 1440.46 2269.74 1444.78 2264.43 1444.78ZM2264.43 1428.9C2260.98 1428.9 2258.18 1431.7 2258.18 1435.15C2258.18 1438.6 2260.98 1441.4 2264.43 1441.4C2267.88 1441.4 2270.68 1438.6 2270.68 1435.15C2270.68 1431.7 2267.88 1428.9 2264.43 1428.9Z" fill="#25292B"/>
<path d="M2315.36 1425.24C2310.72 1425.24 2306.95 1421.46 2306.95 1416.82C2306.95 1412.18 2310.73 1408.4 2315.36 1408.4C2320.01 1408.4 2323.78 1412.18 2323.78 1416.82C2323.78 1421.46 2320.01 1425.24 2315.36 1425.24ZM2315.36 1411.79C2312.59 1411.79 2310.33 1414.05 2310.33 1416.82C2310.33 1419.6 2312.59 1421.85 2315.36 1421.85C2318.14 1421.85 2320.4 1419.6 2320.4 1416.82C2320.4 1414.05 2318.14 1411.79 2315.36 1411.79Z" fill="#25292B"/>
<path d="M2363.35 1456.97C2359.92 1456.97 2357.12 1454.18 2357.12 1450.74C2357.12 1447.3 2359.92 1444.51 2363.35 1444.51C2366.79 1444.51 2369.59 1447.3 2369.59 1450.74C2369.59 1454.18 2366.79 1456.97 2363.35 1456.97ZM2363.35 1447.9C2361.78 1447.9 2360.51 1449.17 2360.51 1450.74C2360.51 1452.31 2361.78 1453.59 2363.35 1453.59C2364.92 1453.59 2366.2 1452.31 2366.2 1450.74C2366.2 1449.17 2364.92 1447.9 2363.35 1447.9Z" fill="#25292B"/>
<path d="M2365.27 1425.24C2364.67 1425.24 2364.11 1424.91 2363.81 1424.39L2353.78 1407.05C2353.48 1406.52 2353.48 1405.88 2353.78 1405.36L2363.81 1388.01C2364.11 1387.49 2364.67 1387.16 2365.27 1387.16C2365.87 1387.16 2366.43 1387.48 2366.73 1388L2376.78 1405.35C2377.08 1405.88 2377.08 1406.52 2376.78 1407.05L2366.73 1424.4C2366.43 1424.92 2365.87 1425.24 2365.27 1425.24ZM2357.2 1406.2L2365.27 1420.16L2373.36 1406.2L2365.27 1392.23L2357.2 1406.2Z" fill="#25292B"/>
<path d="M2290.99 1398.46C2287.55 1398.46 2284.75 1395.67 2284.75 1392.23C2284.75 1388.79 2287.55 1386 2290.99 1386C2294.42 1386 2297.22 1388.79 2297.22 1392.23C2297.22 1395.67 2294.42 1398.46 2290.99 1398.46ZM2290.99 1389.39C2289.41 1389.39 2288.14 1390.66 2288.14 1392.23C2288.14 1393.8 2289.41 1395.08 2290.99 1395.08C2292.56 1395.08 2293.83 1393.8 2293.83 1392.23C2293.83 1390.66 2292.56 1389.39 2290.99 1389.39Z" fill="#25292B"/>
<path d="M2135.59 445.68C2134.99 445.68 2134.43 445.355 2134.13 444.833L2118.17 417.21C2117.87 416.688 2117.87 416.043 2118.17 415.52L2134.13 387.902C2134.43 387.38 2134.99 387.055 2135.59 387.055C2136.2 387.055 2136.75 387.376 2137.06 387.898L2153.05 415.516C2153.35 416.043 2153.35 416.688 2153.05 417.214L2137.06 444.837C2136.75 445.359 2136.19 445.68 2135.59 445.68ZM2121.59 416.367L2135.59 440.611L2149.63 416.367L2135.59 392.128L2121.59 416.367Z" fill="#25292B"/>
<path d="M2069.57 396.692C2064.26 396.692 2059.94 392.371 2059.94 387.059C2059.94 381.748 2064.26 377.423 2069.57 377.423C2074.88 377.423 2079.21 381.748 2079.21 387.059C2079.21 392.371 2074.88 396.692 2069.57 396.692ZM2069.57 380.806C2066.12 380.806 2063.32 383.61 2063.32 387.059C2063.32 390.505 2066.12 393.308 2069.57 393.308C2073.02 393.308 2075.82 390.505 2075.82 387.059C2075.82 383.61 2073.02 380.806 2069.57 380.806Z" fill="#25292B"/>
<path d="M2120.51 377.147C2115.86 377.147 2112.09 373.369 2112.09 368.732C2112.09 364.09 2115.87 360.312 2120.51 360.312C2125.15 360.312 2128.92 364.09 2128.92 368.732C2128.92 373.369 2125.15 377.147 2120.51 377.147ZM2120.51 363.695C2117.73 363.695 2115.47 365.957 2115.47 368.732C2115.47 371.507 2117.73 373.764 2120.51 373.764C2123.28 373.764 2125.54 371.507 2125.54 368.732C2125.54 365.957 2123.28 363.695 2120.51 363.695Z" fill="#25292B"/>
<path d="M2168.49 408.881C2165.06 408.881 2162.26 406.086 2162.26 402.649C2162.26 399.212 2165.06 396.417 2168.49 396.417C2171.93 396.417 2174.73 399.212 2174.73 402.649C2174.73 406.086 2171.93 408.881 2168.49 408.881ZM2168.49 399.804C2166.92 399.804 2165.65 401.083 2165.65 402.653C2165.65 404.224 2166.92 405.502 2168.49 405.502C2170.06 405.502 2171.34 404.224 2171.34 402.653C2171.35 401.083 2170.07 399.804 2168.49 399.804Z" fill="#25292B"/>
<path d="M2170.41 377.147C2169.81 377.147 2169.25 376.822 2168.95 376.3L2158.93 358.955C2158.62 358.433 2158.62 357.788 2158.93 357.265L2168.95 339.916C2169.26 339.394 2169.81 339.07 2170.41 339.07C2171.02 339.07 2171.57 339.39 2171.88 339.912L2181.92 357.261C2182.23 357.788 2182.23 358.433 2181.92 358.959L2171.88 376.304C2171.57 376.826 2171.01 377.147 2170.41 377.147ZM2162.34 358.108L2170.41 372.074L2178.5 358.108L2170.41 344.139L2162.34 358.108Z" fill="#25292B"/>
<path d="M2096.13 350.371C2092.69 350.371 2089.89 347.576 2089.89 344.139C2089.89 340.702 2092.69 337.906 2096.13 337.906C2099.56 337.906 2102.36 340.702 2102.36 344.139C2102.36 347.576 2099.56 350.371 2096.13 350.371ZM2096.13 341.294C2094.56 341.294 2093.28 342.573 2093.28 344.143C2093.28 345.713 2094.56 346.992 2096.13 346.992C2097.7 346.992 2098.98 345.713 2098.98 344.143C2098.98 342.573 2097.7 341.294 2096.13 341.294Z" fill="#25292B"/>
<g filter="url(#filter0_d_34_577)">
<path d="M162.98 363.655C189.094 369.411 214.731 378.463 241.4 381.403C267.284 384.256 293.71 380.7 318.266 372.161C334.349 366.566 347.167 357.776 358.921 347.149C358.284 343.186 337.529 288.059 336.509 284.211C331.835 266.661 332.836 237.591 332.836 187.6C332.836 173.868 328.308 142.558 331 126.627C336.904 119.893 341.221 111.848 343.601 103.251C344.275 100.756 344.789 98.0629 343.72 95.7237C341.78 91.444 336.032 90.9301 331.358 90.3339C305.922 87.1231 299.84 64.1747 277.335 51.9317C254.79 39.7298 214.799 38.7103 191.304 49.0129C167.809 59.2743 149.543 80.7879 143.245 105.627C136.153 133.48 133.46 136.21 133.46 190.966C127.279 273.934 126.267 292.047 119.056 304.767C114.851 312.159 106.226 354.027 104.667 362.323C124.097 359.877 143.349 359.33 162.98 363.655Z" fill="#4E3F3F"/>
<path d="M534.927 388.996L429.937 394.941C429.937 394.941 446.706 438.252 445.436 458.1C444.129 477.912 423.051 512.063 423.051 512.063C429.937 537.951 434.147 602.66 445.428 754.567L443.524 754.608C325.062 817.287 138.609 720.613 138.609 720.613C152.834 685.747 165.233 670.219 165.233 670.219C153.742 670.219 143.086 666.136 134.765 659.205C126.444 652.269 120.504 642.526 118.44 631.196L81.3163 428.344C73.2338 384.128 96.4494 340.151 137.536 321.845L194.866 296.331L293.636 273.033L534.919 279.968V388.996H534.927Z" fill="#FFBD29"/>
<path d="M165.233 672.27C164.139 672.27 163.231 671.411 163.182 670.309C163.128 669.174 164.008 668.212 165.143 668.163L387.851 657.967V592.691L212.655 567.247C211.709 567.111 210.982 566.338 210.904 565.384L199.158 426.609C199.064 425.478 199.902 424.483 201.033 424.389C202.151 424.278 203.158 425.133 203.253 426.263L214.863 563.411L390.203 588.88C391.214 589.028 391.962 589.891 391.962 590.915V659.937C391.962 661.034 391.099 661.939 390.001 661.992L165.332 672.278C165.299 672.27 165.266 672.27 165.233 672.27Z" fill="#25292B"/>
<path d="M429.937 396.996C429.279 396.996 428.634 396.684 428.235 396.1L407.663 365.908C407.021 364.967 407.264 363.688 408.201 363.051C409.143 362.409 410.417 362.652 411.058 363.589L431.631 393.782C432.272 394.723 432.029 396.002 431.092 396.639C430.734 396.881 430.331 396.996 429.937 396.996Z" fill="#25292B"/>
<path d="M287.469 529.063C286.511 529.063 285.656 528.393 285.459 527.418C285.233 526.304 285.952 525.219 287.062 524.997C326.488 516.968 366.876 512.129 407.095 510.616C408.246 510.501 409.184 511.459 409.225 512.593C409.27 513.728 408.382 514.682 407.247 514.723C367.25 516.228 327.088 521.038 287.88 529.022C287.74 529.05 287.605 529.063 287.469 529.063Z" fill="#25292B"/>
<path d="M287.82 253.02L302.242 302.662L301.013 364.744L194.871 296.322L187.303 210.946C171.812 215.066 159.844 205.836 153.349 189.433C146.376 171.8 149.069 152.547 165.353 146.089C169.078 144.621 172.959 143.951 176.803 144.029C184.211 144.189 191.5 147.08 197.325 152.07C197.367 152.07 197.404 152.112 197.445 152.149L197.404 151.873L197.601 151.832C198.592 151.754 203.147 151.121 209.605 149.258L210.041 149.139C223.908 145.02 246.096 135.112 260.436 111.818C263.289 107.181 265.825 102.034 267.922 96.2864C267.922 96.2864 300.408 98.823 316.417 117.245C318.555 119.621 320.339 122.277 321.766 125.208L325.133 173.625C326.995 200.052 316.734 225.845 297.239 243.831L287.82 253.02Z" fill="#F2E9DA"/>
<path d="M308.411 172.769C313.156 172.438 316.706 167.913 316.34 162.663C315.973 157.412 311.83 153.424 307.084 153.756C302.339 154.087 298.789 158.611 299.155 163.862C299.522 169.112 303.666 173.1 308.411 172.769Z" fill="#4E3F3F"/>
<path d="M256.17 176.413C260.915 176.082 264.465 171.557 264.099 166.307C263.732 161.056 259.588 157.068 254.843 157.399C250.098 157.73 246.548 162.255 246.914 167.506C247.281 172.756 251.424 176.744 256.17 176.413Z" fill="#4E3F3F"/>
<path d="M299.06 141.546C305.444 139.018 312.873 139.659 318.501 143.742C319.62 144.552 320.187 146.151 319.34 147.384C318.575 148.498 316.894 149.09 315.698 148.223C315.147 147.82 314.575 147.45 313.979 147.117C313.687 146.952 313.391 146.8 313.091 146.656C313.058 146.64 313.021 146.624 312.988 146.611C312.832 146.545 312.676 146.48 312.516 146.418C311.882 146.167 311.233 145.953 310.575 145.781C310.246 145.694 309.913 145.616 309.58 145.546C309.518 145.534 309.465 145.522 309.42 145.514C309.235 145.485 309.05 145.456 308.865 145.435C308.186 145.349 307.504 145.304 306.822 145.296C306.48 145.292 306.139 145.296 305.798 145.312C305.629 145.32 305.457 145.333 305.288 145.341C305.28 145.341 305.28 145.341 305.28 145.341C305.259 145.345 305.272 145.345 305.235 145.349C304.556 145.44 303.886 145.551 303.224 145.711C302.891 145.793 302.562 145.879 302.238 145.982C302.073 146.032 301.913 146.085 301.753 146.138C301.707 146.155 301.687 146.159 301.67 146.163C301.637 146.175 301.621 146.184 301.58 146.2C300.301 146.706 298.669 146.521 297.995 145.131C297.428 143.964 297.682 142.089 299.06 141.546Z" fill="#25292B"/>
<path d="M262.581 147.598C262.108 149.065 260.517 149.476 259.181 149.152C259.136 149.139 259.119 149.135 259.086 149.127C259.066 149.123 259.045 149.123 259 149.115C258.831 149.086 258.663 149.053 258.498 149.024C258.161 148.971 257.824 148.926 257.483 148.893C256.805 148.827 256.122 148.806 255.44 148.815C255.399 148.815 255.411 148.815 255.39 148.815C255.382 148.815 255.39 148.815 255.382 148.815C255.214 148.827 255.041 148.839 254.872 148.856C254.531 148.889 254.194 148.93 253.857 148.979C253.183 149.082 252.513 149.222 251.855 149.402C251.674 149.452 251.497 149.501 251.316 149.559C251.275 149.575 251.218 149.592 251.164 149.612C250.844 149.731 250.527 149.851 250.21 149.982C249.581 150.245 248.969 150.549 248.377 150.882C248.229 150.965 248.081 151.055 247.937 151.141C247.904 151.162 247.871 151.183 247.842 151.199C247.567 151.384 247.292 151.577 247.028 151.779C246.486 152.19 245.972 152.642 245.478 153.115C244.414 154.138 242.666 153.785 241.754 152.79C240.747 151.688 241.084 150.023 242.079 149.065C247.086 144.243 254.35 142.574 261.027 144.194C262.462 144.543 262.976 146.368 262.581 147.598Z" fill="#25292B"/>
<path d="M266.745 264.292C266.12 264.292 265.483 264.276 264.829 264.243C248.849 263.38 235.838 248.329 235.291 247.692C234.555 246.828 234.658 245.533 235.521 244.793C236.384 244.053 237.679 244.16 238.419 245.019C238.543 245.163 250.847 259.367 265.051 260.136C279.095 260.884 286.117 251.864 286.187 251.774C286.873 250.869 288.16 250.693 289.069 251.383C289.973 252.07 290.146 253.357 289.459 254.265C289.135 254.689 281.652 264.292 266.745 264.292Z" fill="#25292B"/>
<path d="M302.941 202.428C302.891 202.428 302.842 202.428 302.793 202.424L282.003 200.911C280.872 200.829 280.021 199.846 280.103 198.712C280.186 197.577 281.172 196.734 282.303 196.812L300.084 198.107L287.639 158.077C287.302 156.992 287.906 155.841 288.992 155.504C290.081 155.171 291.228 155.775 291.565 156.856L304.906 199.768C305.107 200.418 304.976 201.125 304.552 201.655C304.158 202.14 303.566 202.428 302.941 202.428Z" fill="#25292B"/>
<path d="M278.125 217.384C278.055 217.384 277.985 217.38 277.915 217.376C273.064 216.883 268.46 215.045 264.599 212.061C260.739 209.076 257.8 205.084 256.102 200.512C255.707 199.448 256.25 198.264 257.31 197.869C258.379 197.478 259.559 198.017 259.954 199.078C261.364 202.872 263.905 206.326 267.111 208.805C270.314 211.284 274.302 212.875 278.331 213.282C279.457 213.397 280.284 214.404 280.168 215.534C280.062 216.595 279.165 217.384 278.125 217.384Z" fill="#25292B"/>
<path d="M179.276 203.267C179.268 203.267 179.256 203.267 179.248 203.267C172.653 203.168 166.552 198.334 164.744 191.772C163.033 185.577 165.286 178.489 170.339 174.135C172.719 172.088 175.248 171.093 177.759 171.11C178.573 171.13 179.359 171.282 180.086 171.545C179.938 170.259 179.737 168.98 179.445 167.73C178.693 164.507 177.431 161.868 175.696 159.882C173.973 157.909 171.839 156.77 169.846 156.762C168.069 156.708 166.31 157.637 165.118 159.072C163.95 160.482 163.317 162.431 163.387 164.425C163.428 165.56 162.54 166.513 161.405 166.55C160.295 166.624 159.321 165.704 159.28 164.569C159.177 161.58 160.147 158.62 161.952 156.445C163.925 154.065 166.865 152.651 169.821 152.651C169.833 152.651 169.846 152.651 169.858 152.651C173.032 152.663 176.288 154.312 178.787 157.177C180.97 159.672 182.537 162.912 183.441 166.797C184.235 170.201 184.432 173.65 184.568 176.894C184.613 177.988 183.795 178.925 182.705 179.028C181.599 179.122 180.637 178.358 180.477 177.28C180.317 176.199 179.017 175.258 177.632 175.221C175.885 175.147 174.117 176.302 173.007 177.252C169.192 180.537 167.42 186.062 168.69 190.683C170.006 195.444 174.565 199.09 179.293 199.16C180.428 199.176 181.336 200.11 181.32 201.244C181.316 202.371 180.399 203.267 179.276 203.267Z" fill="#25292B"/>
<path d="M290.318 1623.93H410.027L441.641 1651.85C441.641 1651.85 535.318 1649.21 535.318 1717.71H290.318V1623.93Z" fill="#FFBD29"/>
<path d="M298.59 1710.24C297.459 1710.24 296.538 1709.32 296.534 1708.19C296.53 1707.05 297.447 1706.13 298.582 1706.12L529.451 1705.26H529.459C530.59 1705.26 531.511 1706.18 531.515 1707.31C531.519 1708.44 530.602 1709.37 529.467 1709.37L298.598 1710.24H298.59Z" fill="#25292B"/>
<path d="M376.771 1663.69C372.216 1663.69 367.665 1663.45 363.151 1662.97C354.567 1662.06 349.321 1658.62 348.384 1653.31C347.171 1646.43 353.876 1641.53 359.994 1639.42C378.572 1633.02 400.061 1636.88 415.478 1648.91C419.836 1635.06 427.425 1622.33 437.571 1611.91C440.823 1608.57 444.84 1605.03 449.999 1604.04C455.343 1603.01 461.946 1605.75 463.307 1611.46C464.598 1616.88 460.791 1621.63 457.325 1625.15C445.999 1636.7 433.526 1647.25 420.247 1656.51C419.733 1656.87 419.087 1656.97 418.516 1656.8C418.351 1656.91 418.175 1657.01 417.973 1657.07C404.76 1661.45 390.737 1663.69 376.771 1663.69ZM378.613 1640.46C372.759 1640.46 366.905 1641.39 361.33 1643.31C357.642 1644.58 351.611 1647.96 352.429 1652.59C353.26 1657.28 360.508 1658.55 363.583 1658.88C380.669 1660.68 398.305 1658.94 414.717 1653.8C414.651 1653.69 414.598 1653.58 414.557 1653.46C404.612 1645.03 391.608 1640.46 378.613 1640.46ZM418.89 1651.81C419.017 1651.93 419.145 1652.05 419.272 1652.17C431.824 1643.29 443.631 1633.24 454.386 1622.27C457.107 1619.5 460.125 1615.88 459.303 1612.42C458.497 1609.05 454.159 1607.4 450.772 1608.08C446.731 1608.85 443.318 1611.9 440.515 1614.78C430.409 1625.15 422.956 1637.93 418.89 1651.81Z" fill="#25292B"/>
<path d="M419.141 1623.71L286.43 1624.06V1105.56L186.965 1628.4H52.4028C52.4028 1628.4 88.2931 952.35 107.591 835.314C115.912 784.8 127.797 747.122 138.613 720.613C138.613 720.613 325.066 817.287 443.529 754.608L445.432 754.567C449.823 1060.99 421.283 1565.27 419.141 1623.71Z" fill="#25292B"/>
<path d="M181.867 1628.27L198.356 1716.57H41.1956L55.8518 1628.27H181.867Z" fill="#FFBD29"/>
<path d="M64.3621 1716.57H207.586V1707.25C207.586 1662.86 175.523 1636.95 135.974 1636.95C96.4249 1636.95 64.3621 1662.87 64.3621 1707.25V1716.57Z" fill="#FFBD29"/>
<path d="M84.0132 1664.79C83.4582 1664.79 82.9031 1664.56 82.4961 1664.12C81.7274 1663.29 81.7849 1661.98 82.6236 1661.22C101.173 1644.2 120.019 1636.62 143.728 1636.62C170.635 1636.62 186.89 1652.87 187.569 1653.56C188.362 1654.37 188.35 1655.67 187.544 1656.47C186.73 1657.26 185.431 1657.25 184.637 1656.44C184.481 1656.28 168.851 1640.73 143.728 1640.73C121.12 1640.73 103.134 1647.98 85.3986 1664.25C85.0081 1664.61 84.5106 1664.79 84.0132 1664.79Z" fill="#25292B"/>
<path d="M202.632 1710.48H50.3554C49.2207 1710.48 48.2998 1709.56 48.2998 1708.43C48.2998 1707.29 49.2207 1706.37 50.3554 1706.37H202.632C203.767 1706.37 204.688 1707.29 204.688 1708.43C204.688 1709.56 203.767 1710.48 202.632 1710.48Z" fill="#25292B"/>
<path d="M286.434 1107.62C286.302 1107.62 286.17 1107.6 286.035 1107.57C284.921 1107.36 284.193 1106.28 284.411 1105.16L337.219 836.49C337.375 835.709 337.967 835.084 338.74 834.891L432.724 811.395C433.822 811.116 434.94 811.79 435.216 812.892C435.491 813.994 434.821 815.108 433.719 815.383L341.001 838.566L288.444 1105.96C288.255 1106.94 287.396 1107.62 286.434 1107.62Z" fill="#F2E9DA"/>
<path d="M81.8304 1630.46C81.7729 1630.46 81.7153 1630.45 81.6578 1630.45C80.5272 1630.36 79.6844 1629.36 79.779 1628.23C80.2805 1622.15 130.264 1018.71 141.882 916.694C153.553 814.175 201.703 747.348 202.188 746.682C202.854 745.765 204.141 745.564 205.058 746.238C205.975 746.908 206.172 748.195 205.506 749.112C205.025 749.769 157.508 815.778 145.964 917.159C134.354 1019.11 84.3752 1622.49 83.8737 1628.57C83.7873 1629.64 82.887 1630.46 81.8304 1630.46Z" fill="#F2E9DA"/>
</g>
<path d="M912.343 205.993H479.974V582.935H912.343V205.993Z" fill="#F2E9DA"/>
<path d="M479.415 454.108C479.415 454.108 568.52 364.527 630.199 364.527C718.309 364.527 911.8 586.36 911.8 586.36H479.415V454.108Z" fill="#FFBD29"/>
<path d="M770.253 396.515C724.587 396.515 687.43 359.359 687.43 313.692C687.43 268.022 724.587 230.869 770.253 230.869C815.924 230.869 853.076 268.026 853.076 313.692C853.076 359.363 815.924 396.515 770.253 396.515ZM770.253 234.98C726.852 234.98 691.541 270.291 691.541 313.692C691.541 357.094 726.852 392.404 770.253 392.404C813.659 392.404 848.965 357.094 848.965 313.692C848.965 270.291 813.659 234.98 770.253 234.98Z" fill="#25292B"/>
<path d="M770.253 378.307C805.939 378.307 834.868 349.378 834.868 313.692C834.868 278.006 805.939 249.077 770.253 249.077C734.567 249.077 705.638 278.006 705.638 313.692C705.638 349.378 734.567 378.307 770.253 378.307Z" fill="#FFBD29"/>
<path d="M916.827 453.837V586.364H541.587C541.587 586.364 735.049 423.645 823.163 423.645C852.369 423.645 887.708 438.383 916.827 453.837Z" fill="#25292B"/>
<path d="M454.164 180.208V608.716H938.14V180.208H454.164ZM912.343 582.919H479.961V206.005H912.343V582.919Z" fill="#25292B"/>
<path d="M921.769 199.785C921.687 196.701 922.867 193.861 924.853 191.78C926.838 189.704 929.597 188.36 932.68 188.278L960.467 188.2C966.634 188.035 971.806 192.944 971.97 199.111C972.053 202.177 970.873 205.018 968.887 207.098C966.901 209.191 964.143 210.519 961.059 210.601L933.272 210.679C927.109 210.844 921.934 205.935 921.769 199.785Z" fill="#F2E9DA"/>
<path d="M917.745 221.356C917.65 217.742 919.036 214.391 921.379 211.941C923.719 209.474 926.97 207.912 930.605 207.814L963.107 207.612C970.376 207.419 976.473 213.203 976.666 220.451C976.76 224.085 975.375 227.416 973.032 229.882C970.692 232.328 967.436 233.895 963.806 233.989L931.304 234.191C924.035 234.388 917.934 228.624 917.745 221.356Z" fill="#F2E9DA"/>
<path d="M918.094 246.043C918 242.409 919.385 239.079 921.728 236.612C924.068 234.145 927.32 232.583 930.954 232.484L963.457 232.283C970.725 232.09 976.822 237.874 977.015 245.143C977.11 248.777 975.724 252.107 973.381 254.557C971.037 257.007 967.786 258.586 964.155 258.685L931.653 258.886C924.384 259.075 918.283 253.291 918.094 246.043Z" fill="#F2E9DA"/>
<path d="M918.361 268.585C918.267 264.95 919.882 261.612 922.596 259.154C925.309 256.695 929.071 255.1 933.268 254.989L961.327 254.907C969.722 254.685 976.74 260.445 976.933 267.692C977.027 271.327 975.412 274.665 972.698 277.14C969.985 279.615 966.223 281.193 962.026 281.304L933.967 281.387C925.572 281.613 918.55 275.853 918.361 268.585Z" fill="#F2E9DA"/>
<path d="M927.299 259.479C926.205 259.442 925.326 258.545 925.317 257.44C925.309 256.305 926.226 255.38 927.361 255.372L970.063 254.998C971.14 255.018 972.123 255.906 972.131 257.041C972.139 258.175 971.222 259.1 970.088 259.109L927.385 259.483C927.357 259.483 927.328 259.483 927.299 259.479Z" fill="#25292B"/>
<path d="M927.41 235.108C926.308 235.071 925.425 234.162 925.429 233.048C925.433 231.913 926.354 230.997 927.488 231.001L968.666 231.161C969.809 231.075 970.717 232.086 970.713 233.221C970.709 234.355 969.788 235.272 968.653 235.268L927.476 235.108C927.451 235.112 927.431 235.112 927.41 235.108Z" fill="#25292B"/>
<path d="M927.525 210.314C926.444 210.277 925.564 209.401 925.543 208.303C925.519 207.169 926.419 206.227 927.554 206.207L968.846 205.047C969.948 205.039 970.922 205.919 970.943 207.058C970.967 208.192 970.067 209.134 968.932 209.154L927.64 210.314C927.603 210.314 927.562 210.314 927.525 210.314Z" fill="#25292B"/>
<path d="M505.348 610.229H433.115C424.999 610.229 418.36 603.59 418.36 595.474C418.36 587.359 424.999 580.719 433.115 580.719H505.348C513.463 580.719 520.102 587.359 520.102 595.474C520.102 603.59 513.463 610.229 505.348 610.229Z" fill="#F2E9DA"/>
<path d="M429.67 580.723C407.795 580.723 391.922 593.299 391.922 593.299V650.572L445.864 660.841C454.119 662.412 462.58 661.511 470.461 658.214L578.276 630.032C581.996 628.478 584.479 624.334 584.479 619.689C584.479 613.629 580.302 608.712 575.155 608.712H495.884L429.67 580.723Z" fill="#F2E9DA"/>
<path d="M513.049 610.772H441.836C440.701 610.772 439.78 609.851 439.78 608.716C439.78 607.582 440.701 606.661 441.836 606.661H513.049C514.184 606.661 515.104 607.582 515.104 608.716C515.104 609.851 514.188 610.772 513.049 610.772Z" fill="#25292B"/>
<path d="M488.205 639.961C487.152 639.961 486.252 639.155 486.158 638.082C486.059 636.952 486.893 635.953 488.028 635.854L578.103 627.981C579.246 627.895 580.233 628.721 580.332 629.852C580.43 630.982 579.596 631.981 578.461 632.08L488.386 639.953C488.324 639.957 488.262 639.961 488.205 639.961Z" fill="#25292B"/>
<path d="M2378.13 1716.94C2378.13 1718.08 2376.82 1719 2375.24 1719H8.92827C7.31002 1719 6 1718.08 6 1716.94C6 1715.81 7.31002 1714.89 8.92827 1714.89H2375.24C2376.82 1714.89 2378.13 1715.81 2378.13 1716.94Z" fill="#25292B"/>
<defs>
<filter id="filter0_d_34_577" x="0.0841293" y="0.857079" width="576.345" height="1757.97" filterUnits="userSpaceOnUse" color-interpolation-filters="sRGB">
<feFlood flood-opacity="0" result="BackgroundImageFix"/>
<feColorMatrix in="SourceAlpha" type="matrix" values="0 0 0 0 0 0 0 0 0 0 0 0 0 0 0 0 0 0 127 0" result="hardAlpha"/>
<feOffset/>
<feGaussianBlur stdDeviation="20.5557"/>
<feColorMatrix type="matrix" values="0 0 0 0 1 0 0 0 0 1 0 0 0 0 1 0 0 0 0.25 0"/>
<feBlend mode="normal" in2="BackgroundImageFix" result="effect1_dropShadow_34_577"/>
<feBlend mode="normal" in="SourceGraphic" in2="effect1_dropShadow_34_577" result="shape"/>
</filter>
</defs>
</svg>
