<svg width="2006" height="1707" viewBox="0 0 2006 1707" fill="none" xmlns="http://www.w3.org/2000/svg">
<g clip-path="url(#clip0_31_478)">
<path d="M1661.44 1477.27C1956.06 1182.65 1956.06 704.966 1661.44 410.341C1366.81 115.716 889.129 115.716 594.503 410.341C299.878 704.967 299.878 1182.65 594.503 1477.27C889.129 1771.9 1366.81 1771.9 1661.44 1477.27Z" fill="#F5F5F5"/>
<path d="M815.444 1066.9L777.198 1068.55L639.507 1367.44L421.738 1476L432.104 1588.11C432.104 1588.11 700.23 1538.65 767.057 1501.23C833.884 1463.8 919.135 1220.71 919.135 1220.71C919.563 1222.44 828.547 1066.9 828.547 1066.9" fill="#FFDCC9"/>
<path d="M434.404 1340.12L406.494 1310.78C401.119 1307.32 394.82 1305.57 388.43 1305.76L299.985 1308.45C283.297 1310.09 268.255 1319.2 259.062 1333.23L226.904 1387.97C226.904 1387.97 205.284 1425.42 208.043 1434.52C212.2 1448.26 226.701 1445.46 226.701 1445.46C226.701 1445.46 229.76 1462.76 235.563 1466.28C245.238 1472.15 257.047 1467.66 257.047 1467.66C260.264 1474.31 267.097 1478.72 274.464 1478.2C275.93 1478.1 277.471 1477.83 279.057 1477.35C289.558 1474.17 294.286 1453.84 294.286 1453.84L339.133 1445.53C339.133 1445.53 403.54 1488.59 426.234 1516.8C448.935 1545.01 508.388 1523.46 508.388 1523.46L530.638 1417.1L434.404 1340.12Z" fill="#FFDCC9"/>
<path d="M369.217 1352.82C369.284 1353.44 362.091 1354.83 349.875 1356.04C337.683 1357.4 320.423 1357.89 300.999 1360.4L303.104 1358.86C299.939 1365.79 296.053 1372.94 291.61 1380.04C277.869 1402.01 261.685 1419.15 249.094 1430.34C236.42 1441.55 227.272 1446.75 226.904 1446.2C226.4 1445.49 234.631 1439.21 246.395 1427.47C258.099 1415.73 273.487 1398.51 286.89 1377.08C291.22 1370.16 295.046 1363.24 298.218 1356.61L298.88 1355.22L300.323 1355.06C320.281 1352.8 337.48 1353.04 349.672 1352.62C361.872 1352.35 369.149 1352.16 369.217 1352.82Z" fill="#FFA47A"/>
<path d="M371.261 1395.01C371.404 1395.58 365.315 1397.88 354.596 1399.45C343.929 1401.02 328.489 1401.49 311.328 1397.94L314.477 1396.15C312.696 1401.39 310.599 1406.81 308.013 1412.2C298.662 1431.78 285.477 1446.77 274.772 1455.87C264.031 1465.05 256.115 1468.87 255.784 1468.33C255.288 1467.59 262.339 1462.63 272.096 1452.98C281.846 1443.38 294.001 1428.61 302.984 1409.79C305.465 1404.62 307.524 1399.42 309.321 1394.42L310.148 1392.11L312.47 1392.63C345.583 1400.01 371.119 1393.37 371.261 1395.01Z" fill="#FFA47A"/>
<path d="M483.551 1416.83C457.256 1404.61 430.962 1392.39 404.667 1380.17C393.745 1375.08 382.364 1369.9 370.322 1369.96C357.355 1370.02 345.282 1376.12 333.774 1382.08C319.627 1389.4 305.48 1396.73 291.332 1404.05C289.025 1405.25 286.521 1406.67 285.702 1409.14C284.635 1412.36 286.972 1415.67 289.363 1418.08C310.561 1439.56 348.665 1441.11 371.539 1421.44C378.35 1439.96 385.401 1458.91 398.142 1473.97C410.891 1489.03 430.714 1499.69 450.123 1496.12" fill="#FFDCC9"/>
<path d="M450.131 1496.13C450.153 1496.27 449.439 1496.5 448.011 1496.82C446.59 1497.18 444.425 1497.47 441.584 1497.55C435.946 1497.7 427.354 1496.62 417.83 1491.79C408.343 1487.08 398.022 1478.56 389.874 1466.3C381.545 1454.15 375.343 1438.8 369.217 1422.3L373.156 1423.32C361.519 1433.57 344.561 1439.02 327.227 1437.69C318.559 1437.04 309.757 1434.72 301.623 1430.52C297.639 1428.28 293.708 1425.79 290.243 1422.64C288.536 1421.06 286.71 1419.62 285.146 1417.43C283.665 1415.41 282.057 1412.41 282.898 1408.84C283.613 1405.91 285.853 1404.05 287.612 1402.95C289.491 1401.78 291.1 1401.06 292.753 1400.18C296.053 1398.48 299.338 1396.79 302.593 1395.1C309.103 1391.75 315.522 1388.44 321.837 1385.19C334.458 1378.92 346.403 1371.61 359.858 1368.61C373.487 1365.31 386.792 1369.55 397.285 1374.28C407.96 1379.14 417.566 1383.89 426.497 1388.13C443.545 1396.45 457.685 1403.35 468.48 1408.62C478.342 1413.58 483.717 1416.48 483.551 1416.83C483.386 1417.18 477.703 1414.94 467.562 1410.59C456.573 1405.73 442.185 1399.37 424.828 1391.7C415.762 1387.63 405.938 1383.22 395.452 1378.52C384.995 1374.06 373.126 1370.54 360.963 1373.62C348.793 1376.41 336.999 1383.62 324.34 1390.03C318.041 1393.31 311.636 1396.63 305.134 1400.02C301.879 1401.71 298.609 1403.41 295.309 1405.11C291.957 1406.82 288.469 1408.49 288.303 1410.17C287.627 1412.23 290.671 1415.85 293.919 1418.46C297.031 1421.31 300.594 1423.56 304.202 1425.61C311.591 1429.46 319.664 1431.63 327.64 1432.28C343.621 1433.62 359.242 1428.73 369.923 1419.55L372.66 1417.2L373.862 1420.58C379.763 1437.14 385.559 1452.18 393.287 1464.03C400.849 1475.99 410.313 1484.28 419.198 1489.18C437.397 1499.13 450.334 1495.14 450.131 1496.13Z" fill="#FFA47A"/>
<path d="M1545.61 408.84C1550.5 347.771 1564.26 287.507 1566.06 226.273C1567.87 165.039 1556.11 100.325 1516.46 53.6213C1476.82 6.91025 1403.96 -14.8291 1351.7 17.141L1337.93 68.46C1341.56 305.465 1322.64 544.779 1326.27 781.784C1326.74 812.92 1349.97 842.65 1362.17 871.297C1374.37 899.945 1401.07 924.714 1432.2 924.917C1472.95 925.18 1502.36 885.858 1517.6 848.07C1572.83 711.101 1533.84 556.054 1545.61 408.84Z" fill="#4E3F3F"/>
<path d="M1420.13 81.9677C1412.28 66.2646 1404.19 50.3058 1391.92 37.7373C1379.65 25.1688 1362.33 16.2987 1344.9 18.4035C1336.69 19.3957 1328.14 23.4399 1324.89 31.0397C1321.64 38.6394 1326.76 49.4339 1335.02 49.3136L1336.66 50.9298C1353.86 68.3619 1371.41 85.4481 1389.29 102.189C1393.79 106.398 1398.47 110.69 1404.23 112.893C1409.99 115.095 1417.16 114.742 1421.56 110.42C1428.82 103.264 1424.69 91.0784 1420.13 81.9677Z" fill="#72EE5E"/>
<path d="M1450.59 144.315C1394.73 65.7311 1315.85 17.3213 1219.77 9.20283C1165.57 4.62494 1142.35 14.3745 1102.56 22.2674C1062.76 30.1528 1026.09 48.7275 1000.53 80.2315C970.176 117.651 943.927 160.078 935.447 207.51C926.743 256.236 927.231 304.518 933.876 344.727C941.949 393.558 969.951 469.277 996.23 511.215L1078.83 526.986C1147.86 534.044 1217.86 541.073 1286.35 529.857C1354.84 518.649 1422.8 486.822 1462.91 430.196C1518.64 351.515 1506.45 222.89 1450.59 144.315Z" fill="#4E3F3F"/>
<path d="M1339.17 135.918L1176.64 58.1841L1132.66 60.2964C1034.45 53.9821 959.382 157.665 953.346 237.15C946.633 325.446 941.92 433.511 951.542 499.586C970.883 632.443 1081.9 650.927 1081.9 650.927C1081.9 650.927 1074.87 720.55 1071.05 764.457L1328.03 763.352L1380.28 183.764C1381.07 159.559 1363.21 138.775 1339.17 135.918Z" fill="#FFDCC9"/>
<path d="M1150.03 482.267C1149.59 475.306 1146.17 468.939 1141.56 464.414C1132.34 455.363 1118.1 453.582 1107.13 460.099C1096.17 466.616 1089.16 481.026 1090.2 494.933C1095.53 503.412 1104.15 509.479 1114.05 511.012C1115.59 511.253 1117.13 511.411 1118.7 511.478C1126.26 511.794 1134.12 509.764 1140.25 504.592C1146.41 499.428 1150.57 490.859 1150.03 482.267Z" fill="#FFA47A"/>
<path d="M987.487 351.857C987.051 360.833 994.297 368.605 1003.66 369.222C1013.01 369.846 1020.95 363.095 1021.39 354.12C1021.82 345.145 1014.58 337.364 1005.23 336.741C995.861 336.124 987.915 342.89 987.487 351.857Z" fill="#4E3F3F"/>
<path d="M948.351 398.263C947.546 406.896 960.922 414.373 978.209 414.966C995.455 415.566 1010.12 409.073 1010.92 400.439C1011.73 391.805 998.354 384.321 981.108 383.721C963.807 383.128 949.142 389.636 948.351 398.263Z" fill="#FFA891"/>
<path d="M1010.96 348.177C1010.86 350.335 1012.6 352.204 1014.85 352.353C1017.1 352.503 1019.01 350.879 1019.12 348.721C1019.22 346.562 1017.48 344.691 1015.23 344.541C1012.98 344.393 1011.07 346.02 1010.96 348.177Z" fill="white"/>
<path d="M964.239 322.829C966.322 325.077 979.326 315.711 997.622 315.989C1015.9 316.011 1029.21 325.596 1031.22 323.385C1032.22 322.408 1030.11 318.379 1024.32 314.042C1018.63 309.727 1008.85 305.487 997.457 305.382C986.061 305.299 976.417 309.374 970.854 313.591C965.171 317.838 963.209 321.829 964.239 322.829Z" fill="#4E3F3F"/>
<path d="M1087.72 434.27C1087.82 433.233 1076.48 431.121 1058.07 428.528C1053.41 427.979 1049 427.002 1048.25 423.799C1047.19 420.409 1049.21 415.395 1051.55 409.99C1056.09 398.737 1060.84 386.943 1065.83 374.585C1085.67 324.183 1100.1 282.704 1098.07 281.93C1096.03 281.148 1078.29 321.372 1058.45 371.774C1053.67 384.207 1049.1 396.054 1044.75 407.389C1042.91 412.674 1039.8 418.658 1042.09 425.694C1043.31 429.204 1046.71 431.775 1049.68 432.624C1052.67 433.579 1055.29 433.662 1057.61 433.827C1076.14 435.075 1087.64 435.308 1087.72 434.27Z" fill="#4E3F3F"/>
<path d="M1081.69 650.762C1081.69 650.762 1170.81 657.67 1259.87 605.697C1259.87 605.697 1211.38 696.984 1078.83 682.86L1081.69 650.762Z" fill="#FFA47A"/>
<path d="M1141.41 447.621C1138.44 447.41 1138.14 467.27 1120.95 481.147C1103.81 495.068 1082.66 492.565 1082.47 495.339C1082.18 496.579 1087.14 499.255 1096.07 499.616C1104.83 500.03 1117.67 497.376 1128.18 488.889C1138.67 480.38 1143.28 468.901 1144.06 460.761C1144.92 452.469 1142.77 447.523 1141.41 447.621Z" fill="#4E3F3F"/>
<path d="M990.817 219.921C993.832 224.431 1007.89 221.62 1024.24 223.198C1040.64 224.243 1054.1 229.257 1057.75 225.281C1059.37 223.334 1057.64 218.959 1052.03 214.388C1046.5 209.841 1036.89 205.571 1025.63 204.669C1014.38 203.782 1004.24 206.458 998.101 210.074C991.862 213.697 989.509 217.741 990.817 219.921Z" fill="#4E3F3F"/>
<path d="M1174.19 356.774C1174.05 365.764 1166.33 373.055 1156.94 373.086C1147.58 373.116 1140.08 365.884 1140.2 356.894C1140.34 347.911 1148.07 340.604 1157.42 340.574C1166.81 340.537 1174.32 347.791 1174.19 356.774Z" fill="#4E3F3F"/>
<path d="M1222.37 399.29C1222.12 407.951 1207.89 414.976 1190.59 415.004C1173.33 415.033 1159.5 408.067 1159.74 399.406C1159.99 390.752 1174.23 383.713 1191.48 383.684C1208.78 383.647 1222.62 390.636 1222.37 399.29Z" fill="#FFA891"/>
<path d="M1169.34 349.11C1169.3 351.651 1167.12 353.712 1164.47 353.721C1161.82 353.729 1159.7 351.685 1159.73 349.144C1159.77 346.606 1161.96 344.541 1164.6 344.532C1167.26 344.521 1169.38 346.572 1169.34 349.11Z" fill="white"/>
<path d="M1211.42 332.525C1209.21 334.63 1196.82 324.467 1178.54 323.588C1160.29 322.453 1146.4 331.18 1144.54 328.842C1143.61 327.805 1145.96 323.911 1152.01 319.957C1157.97 316.018 1167.99 312.395 1179.37 313.011C1190.75 313.65 1200.12 318.326 1205.4 322.889C1210.81 327.481 1212.51 331.578 1211.42 332.525Z" fill="#4E3F3F"/>
<path d="M1220.46 233.888C1216.66 237.857 1202.77 232.843 1185.83 231.783C1168.92 230.197 1154.37 232.994 1151.28 228.483C1149.94 226.303 1152.41 222.259 1158.88 218.644C1165.27 215.043 1175.76 212.359 1187.4 213.261C1199.03 214.178 1208.93 218.448 1214.62 222.996C1220.4 227.566 1222.16 231.941 1220.46 233.888Z" fill="#4E3F3F"/>
<path d="M1342.52 404.202C1342.67 394.332 1354.38 371.195 1364.15 369.804C1390.24 366.083 1437.15 368.782 1436.74 434.917C1436.16 525.317 1345.52 506.096 1345.37 503.503C1345.26 501.473 1342 438.292 1342.52 404.202Z" fill="#FFDCC9"/>
<path d="M1370.52 470.63C1370.92 470.344 1372.09 471.743 1374.74 472.975C1377.33 474.178 1381.79 475.027 1386.52 473.291C1396.09 469.848 1404.23 454.731 1404.77 438.442C1405.05 430.211 1403.38 422.371 1400.51 415.861C1397.78 409.231 1393.54 404.585 1388.73 403.706C1383.96 402.571 1380.53 405.427 1379.41 407.953C1378.18 410.478 1378.75 412.29 1378.27 412.433C1378.01 412.658 1376.34 410.907 1377.09 407.186C1377.47 405.389 1378.55 403.262 1380.68 401.541C1382.86 399.789 1386.06 398.91 1389.41 399.293C1396.38 399.827 1402.61 406.276 1405.77 413.418C1409.31 420.589 1411.39 429.414 1411.07 438.652C1410.38 456.866 1400.95 473.855 1387.85 477.546C1381.49 479.162 1376.19 477.215 1373.47 475.058C1370.67 472.818 1370.21 470.788 1370.52 470.63Z" fill="#FFA47A"/>
<path d="M1367.81 370.307L1343.33 392.483C1250.97 291.228 1073.99 41.3909 1083.81 56.2296C1083.81 56.2296 1153.37 32.9943 1225.97 50.4865C1298.57 67.9862 1435.38 114.201 1427.37 200.685C1419.35 287.161 1367.81 370.307 1367.81 370.307Z" fill="#4E3F3F"/>
<path d="M1499.98 359.303C1500.14 359.265 1499.78 357.453 1498.96 354.003C1498.11 350.568 1496.51 345.569 1493.78 339.397C1488.33 327.114 1477.44 310.261 1459.03 294.505C1440.94 278.381 1415.28 264.475 1385.75 252.929C1356.3 241.074 1322.87 231.159 1290.51 214.584C1257.91 198.535 1229.21 178.75 1204.95 158.725C1180.78 138.519 1161.09 117.93 1145.89 99.5805C1130.69 81.2087 1119.82 65.2124 1112.52 54.0345C1109.18 48.72 1106.47 44.4051 1104.33 41.0074C1102.43 38.0382 1101.37 36.5123 1101.23 36.595C1101.08 36.6702 1101.88 38.3465 1103.52 41.4736C1105.2 44.5706 1107.56 49.2236 1110.98 54.9892C1117.85 66.4978 1128.37 82.8775 1143.36 101.655C1158.35 120.41 1177.96 141.42 1202.21 162.002C1226.55 182.396 1255.49 202.504 1288.46 218.726C1321.23 235.504 1354.91 245.344 1384.19 256.898C1413.61 268.166 1438.89 281.493 1456.92 297.001C1475.25 312.148 1486.29 328.332 1492.16 340.172C1497.98 352.109 1499.5 359.445 1499.98 359.303Z" fill="#22292C"/>
<path d="M1472.81 371.699C1472.81 371.699 1474.23 364.384 1470.65 351.786C1467.29 339.292 1457.76 321.981 1439.71 307.097C1421.86 291.785 1395.61 281.283 1366.58 272.548C1337.41 264.002 1305.84 253.463 1275.23 236.587C1244.68 219.831 1217.56 200.204 1195.49 179.562C1173.28 159.048 1155.66 138.121 1142.24 119.606C1128.63 101.175 1119.78 84.8249 1113.4 73.7147C1110.65 68.3851 1108.41 64.0402 1106.63 60.5899C1105.03 57.6056 1104.12 56.0646 1103.97 56.1323C1103.82 56.1999 1104.45 57.8612 1105.78 60.9808C1107.36 64.5439 1109.35 69.0315 1111.8 74.534C1117.72 85.9449 1126.19 102.663 1139.57 121.493C1152.77 140.406 1170.3 161.77 1192.59 182.675C1214.74 203.715 1242.1 223.688 1273.03 240.646C1303.93 257.71 1336.22 268.339 1365.34 276.615C1394.35 285.102 1420.06 295.077 1437.64 309.623C1455.47 323.792 1465.13 340.292 1468.94 352.305C1472.95 364.422 1472.2 371.766 1472.81 371.699Z" fill="#22292C"/>
<path d="M1354.5 522.528C1354.46 521.919 1362.24 521.438 1375.8 518.86C1389.3 516.063 1408.62 509.23 1428.1 494.113C1447.78 479.26 1466.02 455.295 1479.76 425.678C1493.45 396.038 1502.87 360.746 1506.33 323.138C1507.98 304.345 1507.79 285.898 1505.68 268.241C1503.35 250.621 1499.26 233.918 1494.07 218.44C1483.23 187.568 1467.78 162.017 1452.36 142.646C1421.34 103.722 1394.42 87.0569 1395.51 85.8692C1395.63 85.7039 1397.28 86.7186 1400.32 88.8009C1403.29 90.9583 1407.92 93.8749 1413.33 98.34C1424.36 106.97 1439.62 120.591 1455.64 140.015C1471.71 159.341 1487.88 185.162 1499.24 216.629C1504.71 232.407 1509.01 249.478 1511.47 267.512C1513.7 285.568 1513.96 304.503 1512.26 323.687C1508.74 361.963 1498.99 397.842 1484.73 428.016C1470.41 458.152 1451.29 482.567 1430.66 497.466C1410.23 512.628 1390.1 519.002 1376.25 521.145C1369.35 522.565 1363.78 522.235 1360.13 522.603C1356.43 522.753 1354.5 522.738 1354.5 522.528Z" fill="#22292C"/>
<path d="M1076.14 736.675L1326.75 709.613L1372.6 751.363L1193.7 856.534L1114.78 897.412L1036.83 873.741L1012.14 827.285L1076.14 736.675Z" fill="#FFDCC9"/>
<path d="M738.35 1041.81C738.35 1041.81 816.903 891.06 836.35 858.12C869.5 801.983 931.358 770.163 931.358 770.163L1076.14 736.674C1076.14 736.674 1061.11 809.214 1151.21 814.228C1265.79 820.602 1336.98 710.718 1336.98 710.718C1336.98 710.718 1467.72 724.166 1503.83 739.335C1539.92 754.505 1642.06 797.232 1657.05 933.027L1692.03 1154.71L1415.81 1175.76L1419.63 1470.89L1421.01 1639.23C1297.66 1690.57 1113.59 1719.93 941.033 1673.65C930.606 1670.86 935.996 1550.95 911.911 1428.23L866.418 1317.77C848.212 1273.56 836.891 1226.7 834.208 1178.96C832.441 1147.53 833.306 1123.76 833.306 1123.76C833.306 1123.76 762.45 1099.41 738.35 1041.81Z" fill="#FFC23F"/>
<path d="M955.984 1574.66L1419.08 1435.66L1415.8 1175.77L1651.64 1157.8C1651.64 1157.8 1632.83 1292.46 1630.07 1361.52C1626.1 1460.82 1578.33 1599.62 1546.37 1629.09C1514.42 1658.55 943.685 1690.57 943.685 1690.57L955.984 1574.66Z" fill="#FFDCC9"/>
<path d="M693.337 1656.39C697.156 1662.7 704.38 1666.45 711.664 1665.25C713.114 1665.01 714.618 1664.6 716.151 1663.97C726.314 1659.82 723.691 1638.68 723.691 1638.68L772.98 1626.66C772.98 1626.66 841.137 1663.5 866.38 1689.45C891.622 1715.41 948.797 1688.37 948.797 1688.37L960.982 1580.39L862.667 1504.41C862.667 1504.41 868.695 1508.93 861.156 1493.88C853.616 1478.82 825.194 1486.94 825.194 1486.94C820.105 1479.6 801.034 1478.31 801.034 1478.31L721.158 1493.84C704.695 1497.04 690.578 1507.52 682.746 1522.34L652.843 1578.93C652.843 1578.93 637.846 1619.17 641.447 1627.97C646.874 1641.26 661.051 1637.11 661.051 1637.11C661.051 1637.11 666.99 1662.34 673.763 1662.71C680.536 1663.09 693.337 1656.39 693.337 1656.39Z" fill="#FFDCC9"/>
<path d="M858.953 1566.69C858.93 1567.54 848.136 1567.38 830.982 1569.46C813.873 1571.63 790.345 1576.48 766.162 1586.86C754.075 1592 743.01 1597.93 733.373 1603.99C724.059 1610.23 714.25 1615.52 711.679 1622.85C710.386 1626.45 711.356 1629.92 713.303 1632.39C715.204 1634.85 717.662 1636.38 719.782 1637.05C724.15 1638.47 726.796 1637.06 726.931 1637.54C727.141 1637.64 724.601 1639.96 719.278 1638.99C716.708 1638.5 713.663 1637.05 711.085 1634.22C708.476 1631.55 706.695 1626.57 708.206 1621.76C709.589 1616.92 713.31 1612.98 717.362 1609.65C721.526 1606.44 725.893 1603.14 730.81 1599.99C740.514 1593.58 751.782 1587.38 764.155 1582.12C788.909 1571.49 813.159 1567.09 830.636 1565.83C848.173 1564.66 858.991 1566.12 858.953 1566.69Z" fill="#AE775D"/>
<path d="M868.576 1617.64C868.599 1619.17 835.696 1620.34 795.585 1625.82C755.444 1631.16 723.407 1638.74 723.031 1637.26C722.858 1636.61 730.675 1633.87 743.62 1630.54C756.557 1627.21 774.673 1623.45 794.901 1620.72C815.122 1618.01 833.584 1616.83 846.942 1616.61C860.3 1616.39 868.561 1616.97 868.576 1617.64Z" fill="#AE775D"/>
<path d="M693.646 1654.31C693.375 1654.28 692.789 1651.34 691.97 1645.8C691.203 1640.29 690.241 1632.26 690.09 1622.21C690.045 1617.19 690.151 1611.65 691.068 1605.68C691.895 1599.69 694.217 1593.28 697.63 1587.51C704.042 1575.95 713.258 1563.78 725.435 1554.25C737.575 1544.81 749.821 1536.69 762.48 1531.78C775.026 1526.89 786.978 1525 796.878 1523.79C806.815 1522.67 814.859 1522.26 820.421 1522.04C825.984 1521.84 829.066 1521.89 829.103 1522.25C829.201 1523.07 816.911 1524.43 797.389 1527.39C787.692 1529.05 776.131 1531.28 764.246 1536.19C752.459 1541 740.425 1549.13 728.691 1558.25C716.941 1567.5 708.319 1578.66 701.749 1589.89C694.743 1600.66 694.194 1612.44 693.743 1622.24C693.307 1641.9 694.758 1654.25 693.646 1654.31Z" fill="#AE775D"/>
<path d="M798.741 1499.09C798.809 1499.86 786.766 1501.11 767.681 1504.82C749.354 1509.1 719.79 1512.76 704.868 1539.62C688.361 1564.29 674.499 1587.46 669.087 1605.99C663.254 1624.44 664.855 1636.77 663.795 1636.75C663.517 1636.78 662.81 1633.78 662.66 1628.24C662.457 1622.72 663.021 1614.6 665.577 1604.99C670.297 1585.51 684.001 1561.52 700.599 1536.72C704.838 1530.48 709.491 1524.52 715.039 1519.67C720.556 1514.74 727.179 1511.59 733.313 1509.29C745.746 1504.72 757.353 1502.77 767.057 1501.22C786.519 1498.41 798.696 1498.45 798.741 1499.09Z" fill="#AE775D"/>
<path d="M847.43 1673.65C847.332 1673.78 845.588 1672.65 842.356 1670.37C838.688 1667.87 833.937 1664.62 828.028 1660.57C815.407 1652.29 796.705 1640.56 772.229 1628.19L773.387 1628.33C758.691 1632.02 742.123 1636.17 724.18 1640.68L725.729 1638.44C726.157 1642.5 726.232 1646.5 725.744 1650.7C725.217 1654.83 724.263 1659.31 721.016 1663.15C719.317 1665.02 716.769 1666.25 714.634 1666.69C712.454 1667.43 710.063 1667.84 707.642 1667.65C702.832 1667.33 698.164 1665.17 694.698 1661.74C693.811 1660.9 693.037 1659.94 692.3 1658.96L691.782 1658.19L691.526 1657.81L691.398 1657.61L691.383 1657.59C690.722 1657.39 697.111 1659.18 694.39 1658.43L694.338 1658.46L694.24 1658.51L692.706 1659.28C690.669 1660.28 688.587 1661.21 686.437 1662.06C684.287 1662.91 682.085 1663.69 679.732 1664.3C678.552 1664.59 677.356 1664.86 676.056 1664.99C674.846 1665.13 673.387 1665.28 671.365 1664.45C668.396 1662.66 667.208 1660.38 665.96 1658.24C664.788 1656.05 663.796 1653.82 662.954 1651.57C661.217 1647.04 659.857 1642.47 658.654 1637.69L661.721 1639.48C655.339 1641.12 647.589 1640.15 642.635 1634.58C640.403 1631.99 638.486 1628.72 638.426 1624.8C638.32 1621.3 638.862 1618.17 639.448 1615.01C641.996 1602.49 646.018 1590.37 650.43 1578.05L650.483 1577.91L650.566 1577.75C655.647 1568.12 661.044 1557.9 666.502 1547.56C669.9 1541.14 673.275 1534.76 676.62 1528.43C680.003 1522.29 682.927 1515.46 687.895 1509.79C692.669 1504.15 698.569 1499.58 705.057 1496.37C711.484 1492.99 718.82 1491.7 725.278 1490.51C751.753 1485.43 776.988 1480.6 800.591 1476.08L800.914 1476.02L801.185 1476.05C805.913 1476.47 810.364 1477.23 814.784 1478.52C819.091 1479.89 823.669 1481.44 826.984 1485.72L824.12 1485.07C832.381 1480.9 842.258 1480.1 850.121 1484.51C858.007 1488.87 862.088 1496.57 864.501 1503.93L863.81 1502.92C892.036 1524.61 915.068 1542.3 931.546 1554.96C939.153 1560.95 945.227 1565.74 949.82 1569.35C953.962 1572.7 956.089 1574.53 955.976 1574.68C955.863 1574.83 953.518 1573.29 949.158 1570.23C944.415 1566.82 938.131 1562.3 930.268 1556.66C913.543 1544.33 890.165 1527.09 861.517 1505.98L861.051 1505.63L860.826 1504.96C858.623 1498.49 854.654 1491.47 848.159 1488.12C841.822 1484.52 833.178 1485.32 826.262 1488.86L824.556 1489.74L823.398 1488.21C821.466 1485.65 817.482 1483.93 813.528 1482.83C809.536 1481.68 805.162 1480.98 800.869 1480.62L801.463 1480.59C777.89 1485.24 752.677 1490.21 726.232 1495.42C719.482 1496.7 713.183 1497.81 707.304 1500.91C701.441 1503.84 696.111 1507.99 691.804 1513.09C687.407 1518.05 684.655 1524.46 681.168 1530.84C677.822 1537.17 674.455 1543.55 671.057 1549.98C665.592 1560.31 660.187 1570.53 655.091 1580.16L655.226 1579.86C650.881 1591.91 646.844 1604.06 644.394 1615.97C643.823 1618.91 643.342 1621.95 643.424 1624.61C643.334 1626.91 644.687 1629.3 646.326 1631.27C649.536 1635.13 655.482 1635.97 660.33 1634.79L662.811 1634.18L663.405 1636.58C664.517 1641.08 665.833 1645.62 667.441 1649.86C668.96 1653.87 671.155 1658.73 673.493 1660.24C673.605 1660.29 674.485 1660.48 675.537 1660.3C676.507 1660.22 677.544 1660 678.567 1659.75C680.619 1659.24 682.679 1658.53 684.701 1657.74C686.723 1656.95 688.722 1656.08 690.669 1655.15L692.112 1654.44L692.195 1654.4L692.233 1654.37C689.534 1653.61 695.938 1655.4 695.285 1655.22L695.292 1655.24L695.39 1655.4L695.585 1655.7L695.984 1656.31C696.563 1657.09 697.164 1657.85 697.863 1658.52C700.577 1661.27 704.222 1662.96 707.906 1663.23C709.755 1663.39 711.567 1663.09 713.371 1662.49C715.34 1662.06 716.618 1661.39 717.783 1660.23C722.15 1654.91 722.151 1646.01 721.632 1638.96L721.497 1637.12L723.18 1636.72C741.191 1632.46 757.811 1628.53 772.552 1625.04L773.184 1624.89L773.718 1625.17C798.231 1638.07 816.67 1650.27 829.043 1659.07C835.2 1663.51 839.845 1667.1 842.905 1669.63C845.987 1672.14 847.528 1673.53 847.43 1673.65Z" fill="#AE775D"/>
<path d="M158.468 1688.31L3.14321 1280.39C-2.70507 1265.04 8.63807 1248.59 25.0629 1248.59H523.843C532.946 1248.59 541.222 1253.86 545.086 1262.1L694.458 1651.19L1007.78 1656.52C1020.74 1656.52 1031.24 1667.02 1031.24 1679.97C1031.24 1692.92 1020.74 1703.42 1007.78 1703.42H180.381C170.654 1703.42 161.934 1697.41 158.468 1688.31Z" fill="#22292C"/>
<path d="M369.608 1476C369.608 1494.08 354.957 1508.73 336.878 1508.73C318.8 1508.73 304.149 1494.08 304.149 1476C304.149 1457.93 318.8 1443.28 336.878 1443.28C354.957 1443.28 369.608 1457.93 369.608 1476Z" fill="white"/>
<path d="M904.82 875.296C905.617 875.74 898.108 889.797 887.576 913.197C877.022 936.576 863.958 969.576 853.404 1007.24C842.933 1044.94 840.969 1080.25 837.895 1105.71C834.798 1131.18 833.941 1147.09 833.031 1147.06C832.648 1147.04 832.468 1143.06 832.483 1135.84C832.438 1128.61 832.911 1118.17 833.971 1105.3C836.053 1079.57 837.452 1043.8 848.036 1005.75C858.681 967.726 872.474 934.614 884.013 911.521C889.771 899.96 894.763 890.782 898.544 884.625C902.272 878.431 904.49 875.109 904.82 875.296Z" fill="#4E3F3F"/>
<path d="M1692.03 1154.71C1692.05 1154.88 1690.09 1155.18 1686.31 1155.6C1682.03 1156.02 1676.54 1156.56 1669.73 1157.23C1654.63 1158.49 1633.72 1160.25 1607.82 1162.42C1554.46 1166.44 1480.67 1171.99 1396.12 1178.37L1393.39 1178.57L1393.21 1175.84C1391.44 1147.73 1389.57 1118.05 1387.64 1087.53C1384.64 1034.38 1382.07 983.73 1381.25 937.553C1378.84 891.143 1390.21 848.769 1408.41 818.64C1426.42 788.054 1450.31 770.276 1467.75 761.601C1476.64 757.414 1483.74 754.617 1488.78 753.43C1493.74 752.032 1496.36 751.385 1496.41 751.573C1496.66 752.332 1485.91 754.505 1468.77 763.525C1451.9 772.659 1429 790.489 1411.83 820.625C1394.46 850.46 1383.76 891.571 1386.4 937.455C1387.49 983.475 1390.21 1034.09 1393.21 1087.2C1395.09 1117.71 1396.91 1147.38 1398.63 1175.48L1395.74 1172.96C1480.35 1167.36 1554.18 1162.48 1607.58 1158.95C1633.53 1157.45 1654.48 1156.24 1669.6 1155.36C1676.44 1155.07 1681.95 1154.83 1686.25 1154.64C1690.03 1154.53 1692.02 1154.56 1692.03 1154.71Z" fill="#4E3F3F"/>
<path d="M1172.72 1335.25C1172.56 1335.6 1169.29 1334.38 1163.46 1331.85C1160.52 1330.64 1156.98 1329 1153.11 1326.67C1149.22 1324.39 1144.59 1322.05 1140.03 1318.64C1130.5 1312.38 1120.07 1303.58 1109.54 1292.76C1099.27 1281.72 1089.05 1268.52 1080.32 1253.42C1071.8 1238.19 1065.68 1222.66 1061.44 1208.18C1057.53 1193.61 1055.3 1180.14 1054.8 1168.75C1054.19 1163.08 1054.55 1157.91 1054.59 1153.4C1054.56 1148.88 1054.96 1145.01 1055.43 1141.86C1056.23 1135.55 1056.86 1132.12 1057.24 1132.17C1058.34 1132.27 1056.53 1146.2 1058.73 1168.43C1059.72 1179.54 1062.31 1192.61 1066.38 1206.75C1070.78 1220.8 1076.87 1235.84 1085.17 1250.68C1093.67 1265.39 1103.48 1278.32 1113.3 1289.28C1123.37 1300 1133.27 1308.91 1142.32 1315.44C1160.29 1328.68 1173.19 1334.25 1172.72 1335.25Z" fill="#4E3F3F"/>
<g filter="url(#filter0_d_31_478)">
<path d="M1608.71 543.073L1628.84 482.411C1608.59 452.087 1596.21 415.975 1594.78 376.871C1590.65 264.401 1678.48 169.881 1790.95 165.754C1903.42 161.627 1997.94 249.457 2002.07 361.927C2006.19 474.39 1918.36 568.909 1805.89 573.036C1758.93 574.758 1715.13 560.408 1679.7 534.962L1679.78 535.053L1608.71 543.073Z" fill="white"/>
</g>
<path d="M1704.28 374.842L1732.74 343.368L1793.12 391.83L1882.8 288.832L1912.14 317.404L1791.75 449.84L1704.28 374.842Z" fill="#72EE5E"/>
</g>
<defs>
<filter id="filter0_d_31_478" x="1594.64" y="165.615" width="407.569" height="423.221" filterUnits="userSpaceOnUse" color-interpolation-filters="sRGB">
<feFlood flood-opacity="0" result="BackgroundImageFix"/>
<feColorMatrix in="SourceAlpha" type="matrix" values="0 0 0 0 0 0 0 0 0 0 0 0 0 0 0 0 0 0 127 0" result="hardAlpha"/>
<feOffset dy="15.6606"/>
<feComposite in2="hardAlpha" operator="out"/>
<feColorMatrix type="matrix" values="0 0 0 0 0 0 0 0 0 0 0 0 0 0 0 0 0 0 0.25 0"/>
<feBlend mode="normal" in2="BackgroundImageFix" result="effect1_dropShadow_31_478"/>
<feBlend mode="normal" in="SourceGraphic" in2="effect1_dropShadow_31_478" result="shape"/>
</filter>
<clipPath id="clip0_31_478">
<rect width="2004.55" height="1707" fill="white" transform="translate(0.85318)"/>
</clipPath>
</defs>
</svg>
